<svg xmlns="http://www.w3.org/2000/svg" width="144" height="204"><defs><pattern id="p" width="42" height="30" patternUnits="userSpaceOnUse" patternTransform="rotate(-28)"><path d="M9 18c-5 0-5-8 0-9 2-6 11-4 11 1 7-1 8 8 2 8z" fill="#3d82b2" opacity=".34"/></pattern></defs><rect width="144" height="204" rx="10" fill="#65a9d8" stroke="#3479a8"/><rect width="144" height="204" rx="10" fill="url(#p)"/><path d="M37 111c-18 0-20-26-2-31 6-23 40-20 43 2 25-5 31 29 8 29z" fill="#e5f3fb"/><path d="M49 126l-7 18m28-18-7 18m28-18-7 18" stroke="#286d9b" stroke-width="5"/><text x="72" y="178" text-anchor="middle" font-family="sans-serif" font-size="15" fill="#173f5a">天气卡</text></svg>
