<svg xmlns="http://www.w3.org/2000/svg" width="760" height="640" viewBox="0 0 760 640"><title>武汉大学 / rotation 90</title><polygon points="435.59,348.10 431.26,351.32 431.26,323.23 435.59,320.01" fill="#757271" stroke="none" stroke-width="0" stroke-linejoin="round"/><polygon points="431.26,351.32 426.44,348.42 426.44,320.33 431.26,323.23" fill="#969392" stroke="none" stroke-width="0" stroke-linejoin="round"/><polygon points="435.59,320.01 431.26,323.23 426.44,320.33 430.78,317.11" fill="#aaa0a1" stroke="none" stroke-width="0" stroke-linejoin="round"/><circle cx="422.02" cy="310.81" r="12" fill="#f3d7e7" stroke="#a6a4b4" stroke-width=".7"/><circle cx="440.02" cy="308.81" r="11" fill="#e4bed5" stroke="#a6a4b4" stroke-width=".7"/><circle cx="431.02" cy="298.81" r="13" fill="#f7e4ee" stroke="#a6a4b4" stroke-width=".7"/><circle cx="431.02" cy="315.81" r="10" fill="#f3d7e7" stroke="#a6a4b4" stroke-width=".7"/><polygon points="490.60,409.28 470.54,397.19 470.54,263.43 490.60,275.51" fill="#b8c0b9" stroke="none" stroke-width="0" stroke-linejoin="round"/><polygon points="501.44,401.22 490.60,409.28 490.60,275.51 501.44,267.46" fill="#8f9590" stroke="none" stroke-width="0" stroke-linejoin="round"/><polygon points="600.51,430.64 330.71,631.14 159.49,527.98 429.29,327.48" fill="#a8b29a" stroke="none" stroke-width="0" stroke-linejoin="round"/><polygon points="508.06,305.42 471.33,325.36 439.23,306.02 475.96,286.07" fill="#779f94" stroke="none" stroke-width="0" stroke-linejoin="round"/><polygon points="475.96,286.07 439.23,306.02 402.49,340.67" fill="#7b9d91" stroke="none" stroke-width="0" stroke-linejoin="round"/><polygon points="496.02,324.99 434.60,370.64 434.60,351.91 496.02,306.27" fill="#8f9590" stroke="none" stroke-width="0" stroke-linejoin="round"/><polygon points="496.02,306.27 434.60,351.91 414.53,339.83 475.96,294.18" fill="#d4d9cf" stroke="none" stroke-width="0" stroke-linejoin="round"/><polygon points="429.18,454.93 409.11,442.84 409.11,309.07 429.18,321.16" fill="#b8c0b9" stroke="none" stroke-width="0" stroke-linejoin="round"/><polygon points="440.02,446.87 429.18,454.93 429.18,321.16 440.02,313.11" fill="#8f9590" stroke="none" stroke-width="0" stroke-linejoin="round"/><polygon points="501.44,267.46 490.60,275.51 470.54,263.43 481.38,255.37" fill="#d4d9cf" stroke="none" stroke-width="0" stroke-linejoin="round"/><polygon points="505.26,260.64 490.80,271.38 466.72,256.87 481.18,246.13" fill="#d4d9cf" stroke="none" stroke-width="0" stroke-linejoin="round"/><polygon points="508.06,305.42 434.59,360.02 471.33,325.36" fill="#7b9d91" stroke="none" stroke-width="0" stroke-linejoin="round"/><polygon points="490.80,278.07 466.72,263.56 466.72,256.87 490.80,271.38" fill="#b8c0b9" stroke="none" stroke-width="0" stroke-linejoin="round"/><polygon points="434.60,370.64 414.53,358.55 414.53,339.83 434.60,351.91" fill="#b8c0b9" stroke="none" stroke-width="0" stroke-linejoin="round"/><polygon points="505.26,267.32 490.80,278.07 490.80,271.38 505.26,260.64" fill="#8f9590" stroke="none" stroke-width="0" stroke-linejoin="round"/><polygon points="471.33,325.36 434.59,360.02 402.49,340.67 439.23,306.02" fill="#98b9a8" stroke="none" stroke-width="0" stroke-linejoin="round"/><polygon points="600.51,446.69 330.71,647.19 330.71,631.14 600.51,430.64" fill="#596057" stroke="none" stroke-width="0" stroke-linejoin="round"/><polygon points="200.86,524.34 196.53,527.56 196.53,499.47 200.86,496.25" fill="#757271" stroke="none" stroke-width="0" stroke-linejoin="round"/><polygon points="196.53,527.56 191.71,524.66 191.71,496.57 196.53,499.47" fill="#969392" stroke="none" stroke-width="0" stroke-linejoin="round"/><polygon points="200.86,496.25 196.53,499.47 191.71,496.57 196.05,493.35" fill="#aaa0a1" stroke="none" stroke-width="0" stroke-linejoin="round"/><polygon points="440.02,313.11 429.18,321.16 409.11,309.07 419.95,301.02" fill="#d4d9cf" stroke="none" stroke-width="0" stroke-linejoin="round"/><circle cx="187.29" cy="487.05" r="12" fill="#f3d7e7" stroke="#a6a4b4" stroke-width=".7"/><circle cx="205.29" cy="485.05" r="11" fill="#e4bed5" stroke="#a6a4b4" stroke-width=".7"/><circle cx="196.29" cy="475.05" r="13" fill="#f7e4ee" stroke="#a6a4b4" stroke-width=".7"/><circle cx="196.29" cy="492.05" r="10" fill="#f3d7e7" stroke="#a6a4b4" stroke-width=".7"/><polygon points="443.83,306.28 429.38,317.03 405.30,302.52 419.75,291.78" fill="#d4d9cf" stroke="none" stroke-width="0" stroke-linejoin="round"/><polygon points="429.38,323.71 405.30,309.21 405.30,302.52 429.38,317.03" fill="#b8c0b9" stroke="none" stroke-width="0" stroke-linejoin="round"/><polygon points="443.83,312.97 429.38,323.71 429.38,317.03 443.83,306.28" fill="#8f9590" stroke="none" stroke-width="0" stroke-linejoin="round"/><polygon points="446.64,324.31 396.05,354.55 363.95,335.21 414.53,304.97" fill="#779f94" stroke="none" stroke-width="0" stroke-linejoin="round"/><polygon points="340.05,521.16 319.98,509.07 319.98,375.31 340.05,387.40" fill="#b8c0b9" stroke="none" stroke-width="0" stroke-linejoin="round"/><polygon points="330.71,647.19 159.49,544.03 159.49,527.98 330.71,631.14" fill="#737c70" stroke="none" stroke-width="0" stroke-linejoin="round"/><polygon points="350.89,513.11 340.05,521.16 340.05,387.40 350.89,379.34" fill="#8f9590" stroke="none" stroke-width="0" stroke-linejoin="round"/><polygon points="414.53,304.97 363.95,335.21 313.36,380.16" fill="#7b9d91" stroke="none" stroke-width="0" stroke-linejoin="round"/><polygon points="434.60,343.89 345.47,410.12 345.47,391.40 434.60,325.16" fill="#8f9590" stroke="none" stroke-width="0" stroke-linejoin="round"/><g transform="matrix(0.43574 -0.32382 0 1 350.82 402.97)"><rect y="-18" width="180" height="25" fill="#f4f5fb" stroke="#9aa5bb"/><text x="90" y="0" text-anchor="middle" fill="#4d5c94" font-family="Microsoft YaHei, sans-serif" font-size="17">国立武汉大学</text></g><polygon points="434.60,325.16 345.47,391.40 325.40,379.31 414.53,313.07" fill="#d4d9cf" stroke="none" stroke-width="0" stroke-linejoin="round"/><polygon points="446.64,324.31 345.47,399.50 396.05,354.55" fill="#7b9d91" stroke="none" stroke-width="0" stroke-linejoin="round"/><polygon points="396.05,354.55 345.47,399.50 313.36,380.16 363.95,335.21" fill="#98b9a8" stroke="none" stroke-width="0" stroke-linejoin="round"/><polygon points="357.51,417.30 320.77,437.24 288.67,417.90 325.41,397.96" fill="#779f94" stroke="none" stroke-width="0" stroke-linejoin="round"/><polygon points="345.47,410.12 325.40,398.03 325.40,379.31 345.47,391.40" fill="#b8c0b9" stroke="none" stroke-width="0" stroke-linejoin="round"/><polygon points="325.41,397.96 288.67,417.90 251.94,452.56" fill="#7b9d91" stroke="none" stroke-width="0" stroke-linejoin="round"/><polygon points="345.47,436.88 284.04,482.52 284.04,463.80 345.47,418.15" fill="#8f9590" stroke="none" stroke-width="0" stroke-linejoin="round"/><polygon points="345.47,418.15 284.04,463.80 263.98,451.71 325.40,406.06" fill="#d4d9cf" stroke="none" stroke-width="0" stroke-linejoin="round"/><polygon points="278.62,566.81 258.56,554.72 258.56,420.96 278.62,433.05" fill="#b8c0b9" stroke="none" stroke-width="0" stroke-linejoin="round"/><polygon points="289.46,558.76 278.62,566.81 278.62,433.05 289.46,424.99" fill="#8f9590" stroke="none" stroke-width="0" stroke-linejoin="round"/><polygon points="333.42,605.83 329.09,609.05 329.09,580.96 333.42,577.74" fill="#757271" stroke="none" stroke-width="0" stroke-linejoin="round"/><polygon points="329.09,609.05 324.27,606.15 324.27,578.06 329.09,580.96" fill="#969392" stroke="none" stroke-width="0" stroke-linejoin="round"/><polygon points="350.89,379.34 340.05,387.40 319.98,375.31 330.82,367.25" fill="#d4d9cf" stroke="none" stroke-width="0" stroke-linejoin="round"/><polygon points="354.70,372.52 340.25,383.26 316.17,368.75 330.62,358.01" fill="#d4d9cf" stroke="none" stroke-width="0" stroke-linejoin="round"/><polygon points="357.51,417.30 284.04,471.90 320.77,437.24" fill="#7b9d91" stroke="none" stroke-width="0" stroke-linejoin="round"/><polygon points="340.25,389.95 316.17,375.44 316.17,368.75 340.25,383.26" fill="#b8c0b9" stroke="none" stroke-width="0" stroke-linejoin="round"/><polygon points="333.42,577.74 329.09,580.96 324.27,578.06 328.61,574.83" fill="#aaa0a1" stroke="none" stroke-width="0" stroke-linejoin="round"/><polygon points="284.04,482.52 263.98,470.44 263.98,451.71 284.04,463.80" fill="#b8c0b9" stroke="none" stroke-width="0" stroke-linejoin="round"/><polygon points="354.70,379.21 340.25,389.95 340.25,383.26 354.70,372.52" fill="#8f9590" stroke="none" stroke-width="0" stroke-linejoin="round"/><polygon points="320.77,437.24 284.04,471.90 251.94,452.56 288.67,417.90" fill="#98b9a8" stroke="none" stroke-width="0" stroke-linejoin="round"/><circle cx="319.85" cy="568.53" r="12" fill="#f3d7e7" stroke="#a6a4b4" stroke-width=".7"/><circle cx="337.85" cy="566.53" r="11" fill="#e4bed5" stroke="#a6a4b4" stroke-width=".7"/><circle cx="328.85" cy="556.53" r="13" fill="#f7e4ee" stroke="#a6a4b4" stroke-width=".7"/><circle cx="328.85" cy="573.53" r="10" fill="#f3d7e7" stroke="#a6a4b4" stroke-width=".7"/><polygon points="289.46,424.99 278.62,433.05 258.56,420.96 269.40,412.90" fill="#d4d9cf" stroke="none" stroke-width="0" stroke-linejoin="round"/><polygon points="293.28,418.17 278.82,428.91 254.74,414.40 269.20,403.66" fill="#d4d9cf" stroke="none" stroke-width="0" stroke-linejoin="round"/><polygon points="278.82,435.60 254.74,421.09 254.74,414.40 278.82,428.91" fill="#b8c0b9" stroke="none" stroke-width="0" stroke-linejoin="round"/><polygon points="293.28,424.86 278.82,435.60 278.82,428.91 293.28,418.17" fill="#8f9590" stroke="none" stroke-width="0" stroke-linejoin="round"/></svg>