<svg xmlns="http://www.w3.org/2000/svg" width="760" height="640" viewBox="0 0 760 640"><title>武汉大学 / rotation 180</title><polygon points="315.04,354.89 310.71,358.11 310.71,330.02 315.04,326.79" fill="#757271" stroke="none" stroke-width="0" stroke-linejoin="round"/><polygon points="310.71,358.11 305.89,355.21 305.89,327.12 310.71,330.02" fill="#969392" stroke="none" stroke-width="0" stroke-linejoin="round"/><polygon points="310.71,330.02 305.89,327.12 310.23,323.89 315.04,326.79" fill="#aaa0a1" stroke="none" stroke-width="0" stroke-linejoin="round"/><circle cx="301.47" cy="317.59" r="12" fill="#f3d7e7" stroke="#a6a4b4" stroke-width=".7"/><circle cx="319.47" cy="315.59" r="11" fill="#e4bed5" stroke="#a6a4b4" stroke-width=".7"/><circle cx="310.47" cy="305.59" r="13" fill="#f7e4ee" stroke="#a6a4b4" stroke-width=".7"/><circle cx="310.47" cy="322.59" r="10" fill="#f3d7e7" stroke="#a6a4b4" stroke-width=".7"/><polygon points="193.26,443.59 188.93,446.81 188.93,418.72 193.26,415.50" fill="#757271" stroke="none" stroke-width="0" stroke-linejoin="round"/><polygon points="188.93,446.81 184.11,443.91 184.11,415.82 188.93,418.72" fill="#969392" stroke="none" stroke-width="0" stroke-linejoin="round"/><polygon points="277.34,403.97 259.27,417.39 259.27,283.63 277.34,270.20" fill="#8f9590" stroke="none" stroke-width="0" stroke-linejoin="round"/><polygon points="188.93,418.72 184.11,415.82 188.45,412.59 193.26,415.50" fill="#aaa0a1" stroke="none" stroke-width="0" stroke-linejoin="round"/><polygon points="258.55,408.93 247.95,402.55 247.95,284.83 258.55,291.22" fill="#b8c0b9" stroke="none" stroke-width="0" stroke-linejoin="round"/><circle cx="179.69" cy="406.29" r="12" fill="#f3d7e7" stroke="#a6a4b4" stroke-width=".7"/><circle cx="197.69" cy="404.29" r="11" fill="#e4bed5" stroke="#a6a4b4" stroke-width=".7"/><circle cx="188.69" cy="394.29" r="13" fill="#f7e4ee" stroke="#a6a4b4" stroke-width=".7"/><circle cx="188.69" cy="411.29" r="10" fill="#f3d7e7" stroke="#a6a4b4" stroke-width=".7"/><polygon points="444.00,609.15 180.33,450.29 316.00,349.47 579.67,508.33" fill="#a8b29a" stroke="none" stroke-width="0" stroke-linejoin="round"/><polygon points="281.94,332.00 241.14,314.78 270.05,293.30 310.85,310.52" fill="#98b9a8" stroke="none" stroke-width="0" stroke-linejoin="round"/><polygon points="351.65,342.46 310.85,310.52 270.05,293.30" fill="#7b9d91" stroke="none" stroke-width="0" stroke-linejoin="round"/><polygon points="345.56,445.07 327.49,458.49 327.49,324.73 345.56,311.30" fill="#8f9590" stroke="none" stroke-width="0" stroke-linejoin="round"/><polygon points="321.47,374.61 253.25,333.51 253.25,314.78 321.47,355.88" fill="#b8c0b9" stroke="none" stroke-width="0" stroke-linejoin="round"/><polygon points="321.47,355.88 253.25,314.78 271.32,301.35 339.54,342.45" fill="#d4d9cf" stroke="none" stroke-width="0" stroke-linejoin="round"/><polygon points="326.77,450.03 316.17,443.65 316.17,325.94 326.77,332.32" fill="#b8c0b9" stroke="none" stroke-width="0" stroke-linejoin="round"/><polygon points="259.27,283.63 247.23,276.37 265.30,262.95 277.34,270.20" fill="#d4d9cf" stroke="none" stroke-width="0" stroke-linejoin="round"/><polygon points="322.74,363.94 241.14,314.78 281.94,332.00" fill="#7b9d91" stroke="none" stroke-width="0" stroke-linejoin="round"/><polygon points="339.54,361.18 321.47,374.61 321.47,355.88 339.54,342.45" fill="#8f9590" stroke="none" stroke-width="0" stroke-linejoin="round"/><polygon points="259.47,279.49 243.42,269.82 265.10,253.71 281.15,263.38" fill="#d4d9cf" stroke="none" stroke-width="0" stroke-linejoin="round"/><polygon points="281.15,270.07 259.47,286.18 259.47,279.49 281.15,263.38" fill="#8f9590" stroke="none" stroke-width="0" stroke-linejoin="round"/><polygon points="322.74,363.94 281.94,332.00 310.85,310.52 351.65,342.46" fill="#779f94" stroke="none" stroke-width="0" stroke-linejoin="round"/><polygon points="578.43,511.95 574.09,515.17 574.09,487.08 578.43,483.86" fill="#757271" stroke="none" stroke-width="0" stroke-linejoin="round"/><polygon points="574.09,515.17 569.28,512.27 569.28,484.18 574.09,487.08" fill="#969392" stroke="none" stroke-width="0" stroke-linejoin="round"/><polygon points="259.47,286.18 243.42,276.51 243.42,269.82 259.47,279.49" fill="#b8c0b9" stroke="none" stroke-width="0" stroke-linejoin="round"/><polygon points="452.73,642.91 153.10,462.38 153.10,446.33 452.73,626.86" fill="#737c70" stroke="none" stroke-width="0" stroke-linejoin="round"/><polygon points="574.09,487.08 569.28,484.18 573.61,480.96 578.43,483.86" fill="#aaa0a1" stroke="none" stroke-width="0" stroke-linejoin="round"/><circle cx="564.85" cy="474.66" r="12" fill="#f3d7e7" stroke="#a6a4b4" stroke-width=".7"/><circle cx="582.85" cy="472.66" r="11" fill="#e4bed5" stroke="#a6a4b4" stroke-width=".7"/><circle cx="573.85" cy="462.66" r="13" fill="#f7e4ee" stroke="#a6a4b4" stroke-width=".7"/><circle cx="573.85" cy="479.66" r="10" fill="#f3d7e7" stroke="#a6a4b4" stroke-width=".7"/><polygon points="327.49,324.73 315.45,317.48 333.52,304.05 345.56,311.30" fill="#d4d9cf" stroke="none" stroke-width="0" stroke-linejoin="round"/><polygon points="606.90,528.34 452.73,642.91 452.73,626.86 606.90,512.29" fill="#596057" stroke="none" stroke-width="0" stroke-linejoin="round"/><polygon points="327.69,320.59 311.64,310.92 333.32,294.81 349.37,304.48" fill="#d4d9cf" stroke="none" stroke-width="0" stroke-linejoin="round"/><polygon points="349.37,311.17 327.69,327.28 327.69,320.59 349.37,304.48" fill="#8f9590" stroke="none" stroke-width="0" stroke-linejoin="round"/><polygon points="444.55,504.71 426.48,518.13 426.48,384.37 444.55,370.94" fill="#8f9590" stroke="none" stroke-width="0" stroke-linejoin="round"/><polygon points="365.55,355.62 309.37,329.13 338.27,307.64 394.45,334.14" fill="#98b9a8" stroke="none" stroke-width="0" stroke-linejoin="round"/><polygon points="327.69,327.28 311.64,317.61 311.64,310.92 327.69,320.59" fill="#b8c0b9" stroke="none" stroke-width="0" stroke-linejoin="round"/><polygon points="425.76,509.67 415.16,503.29 415.16,385.57 425.76,391.96" fill="#b8c0b9" stroke="none" stroke-width="0" stroke-linejoin="round"/><polygon points="450.63,375.34 394.45,334.14 338.27,307.64" fill="#7b9d91" stroke="none" stroke-width="0" stroke-linejoin="round"/><polygon points="420.46,407.49 321.47,347.86 321.47,329.13 420.46,388.77" fill="#b8c0b9" stroke="none" stroke-width="0" stroke-linejoin="round"/><g transform="matrix(0.48394 0.29157 0 1 327.41 348.25)"><rect y="-18" width="180" height="25" fill="#f4f5fb" stroke="#9aa5bb"/><text x="90" y="0" text-anchor="middle" fill="#4d5c94" font-family="Microsoft YaHei, sans-serif" font-size="17">国立武汉大学</text></g><polygon points="420.46,388.77 321.47,329.13 339.54,315.70 438.53,375.34" fill="#d4d9cf" stroke="none" stroke-width="0" stroke-linejoin="round"/><polygon points="421.73,396.82 309.37,329.13 365.55,355.62" fill="#7b9d91" stroke="none" stroke-width="0" stroke-linejoin="round"/><polygon points="449.15,432.74 408.35,415.52 437.26,394.04 478.06,411.26" fill="#98b9a8" stroke="none" stroke-width="0" stroke-linejoin="round"/><polygon points="421.73,396.82 365.55,355.62 394.45,334.14 450.63,375.34" fill="#779f94" stroke="none" stroke-width="0" stroke-linejoin="round"/><polygon points="518.86,443.20 478.06,411.26 437.26,394.04" fill="#7b9d91" stroke="none" stroke-width="0" stroke-linejoin="round"/><polygon points="438.53,394.07 420.46,407.49 420.46,388.77 438.53,375.34" fill="#8f9590" stroke="none" stroke-width="0" stroke-linejoin="round"/><polygon points="512.77,545.81 494.70,559.24 494.70,425.47 512.77,412.04" fill="#8f9590" stroke="none" stroke-width="0" stroke-linejoin="round"/><polygon points="488.68,475.35 420.46,434.25 420.46,415.52 488.68,456.62" fill="#b8c0b9" stroke="none" stroke-width="0" stroke-linejoin="round"/><polygon points="488.68,456.62 420.46,415.52 438.53,402.09 506.75,443.20" fill="#d4d9cf" stroke="none" stroke-width="0" stroke-linejoin="round"/><polygon points="493.98,550.78 483.38,544.39 483.38,426.68 493.98,433.06" fill="#b8c0b9" stroke="none" stroke-width="0" stroke-linejoin="round"/><polygon points="426.48,384.37 414.44,377.11 432.51,363.69 444.55,370.94" fill="#d4d9cf" stroke="none" stroke-width="0" stroke-linejoin="round"/><polygon points="489.95,464.68 408.35,415.52 449.15,432.74" fill="#7b9d91" stroke="none" stroke-width="0" stroke-linejoin="round"/><polygon points="506.75,461.92 488.68,475.35 488.68,456.62 506.75,443.20" fill="#8f9590" stroke="none" stroke-width="0" stroke-linejoin="round"/><polygon points="426.68,380.23 410.63,370.56 432.31,354.45 448.36,364.12" fill="#d4d9cf" stroke="none" stroke-width="0" stroke-linejoin="round"/><polygon points="448.36,370.81 426.68,386.92 426.68,380.23 448.36,364.12" fill="#8f9590" stroke="none" stroke-width="0" stroke-linejoin="round"/><polygon points="489.95,464.68 449.15,432.74 478.06,411.26 518.86,443.20" fill="#779f94" stroke="none" stroke-width="0" stroke-linejoin="round"/><polygon points="426.68,386.92 410.63,377.25 410.63,370.56 426.68,380.23" fill="#b8c0b9" stroke="none" stroke-width="0" stroke-linejoin="round"/><polygon points="494.70,425.47 482.66,418.22 500.73,404.79 512.77,412.04" fill="#d4d9cf" stroke="none" stroke-width="0" stroke-linejoin="round"/><polygon points="494.90,421.33 478.85,411.66 500.53,395.55 516.58,405.22" fill="#d4d9cf" stroke="none" stroke-width="0" stroke-linejoin="round"/><polygon points="516.58,411.91 494.90,428.02 494.90,421.33 516.58,405.22" fill="#8f9590" stroke="none" stroke-width="0" stroke-linejoin="round"/><polygon points="494.90,428.02 478.85,418.35 478.85,411.66 494.90,421.33" fill="#b8c0b9" stroke="none" stroke-width="0" stroke-linejoin="round"/></svg>