<svg xmlns="http://www.w3.org/2000/svg" width="760" height="640" viewBox="0 0 760 640"><title>洪山科创大厦 / rotation 0</title><polygon points="190.72,443.68 186.39,446.90 186.39,418.81 190.72,415.58" fill="#757271" stroke="none" stroke-width="0" stroke-linejoin="round"/><polygon points="186.39,446.90 181.57,444.00 181.57,415.91 186.39,418.81" fill="#969392" stroke="none" stroke-width="0" stroke-linejoin="round"/><polygon points="185.91,412.68 190.72,415.58 186.39,418.81 181.57,415.91" fill="#aaa0a1" stroke="none" stroke-width="0" stroke-linejoin="round"/><circle cx="177.15" cy="406.38" r="12" fill="#f3d7e7" stroke="#a6a4b4" stroke-width=".7"/><circle cx="195.15" cy="404.38" r="11" fill="#e4bed5" stroke="#a6a4b4" stroke-width=".7"/><circle cx="186.15" cy="394.38" r="13" fill="#f7e4ee" stroke="#a6a4b4" stroke-width=".7"/><circle cx="186.15" cy="411.38" r="10" fill="#f3d7e7" stroke="#a6a4b4" stroke-width=".7"/><polygon points="316.00,349.47 579.67,508.33 444.00,609.15 180.33,450.29" fill="#a8b29a" stroke="none" stroke-width="0" stroke-linejoin="round"/><polygon points="303.39,515.57 200.39,453.51 200.39,429.43 303.39,491.49" fill="#b8c0b9" stroke="none" stroke-width="0" stroke-linejoin="round"/><g transform="matrix(0.50355 0.30339 0 1 206.57 453.14)"><rect y="-18" width="180" height="25" fill="#f4f5fb" stroke="#9aa5bb"/><text x="90" y="0" text-anchor="middle" fill="#4d5c94" font-family="Microsoft YaHei, sans-serif" font-size="17">洪山科创大厦</text></g><polygon points="204.61,426.30 307.61,488.36 303.39,491.49 200.39,429.43" fill="#d4d9cf" stroke="none" stroke-width="0" stroke-linejoin="round"/><polygon points="575.89,512.04 571.55,515.26 571.55,487.17 575.89,483.95" fill="#757271" stroke="none" stroke-width="0" stroke-linejoin="round"/><polygon points="571.55,515.26 566.74,512.36 566.74,484.27 571.55,487.17" fill="#969392" stroke="none" stroke-width="0" stroke-linejoin="round"/><polygon points="307.61,512.44 303.39,515.57 303.39,491.49 307.61,488.36" fill="#8f9590" stroke="none" stroke-width="0" stroke-linejoin="round"/><polygon points="452.73,642.91 153.10,462.38 153.10,446.33 452.73,626.86" fill="#737c70" stroke="none" stroke-width="0" stroke-linejoin="round"/><polygon points="571.07,481.05 575.89,483.95 571.55,487.17 566.74,484.27" fill="#aaa0a1" stroke="none" stroke-width="0" stroke-linejoin="round"/><circle cx="562.31" cy="474.75" r="12" fill="#f3d7e7" stroke="#a6a4b4" stroke-width=".7"/><circle cx="580.31" cy="472.75" r="11" fill="#e4bed5" stroke="#a6a4b4" stroke-width=".7"/><circle cx="571.31" cy="462.75" r="13" fill="#f7e4ee" stroke="#a6a4b4" stroke-width=".7"/><circle cx="571.31" cy="479.75" r="10" fill="#f3d7e7" stroke="#a6a4b4" stroke-width=".7"/><polygon points="409.98,380.17 543.75,460.77 471.48,514.47 337.72,433.88" fill="#d4d9cf" stroke="none" stroke-width="0" stroke-linejoin="round"/><polygon points="409.72,373.43 548.83,457.24 471.75,514.53 332.63,430.71" fill="#d4d9cf" stroke="none" stroke-width="0" stroke-linejoin="round"/><polygon points="463.45,563.70 345.75,492.78 345.75,442.17 463.45,513.09" fill="#b8c0b9" stroke="none" stroke-width="0" stroke-linejoin="round"/><polygon points="466.93,567.29 449.28,556.65 449.28,549.06 466.93,559.70" fill="#7197a0" stroke="none" stroke-width="0" stroke-linejoin="round"/><polygon points="440.18,551.17 422.52,540.54 422.52,532.94 440.18,543.58" fill="#7197a0" stroke="none" stroke-width="0" stroke-linejoin="round"/><polygon points="413.43,535.06 395.77,524.42 395.77,516.83 413.43,527.46" fill="#7197a0" stroke="none" stroke-width="0" stroke-linejoin="round"/><polygon points="386.68,518.94 369.02,508.30 369.02,500.71 386.68,511.35" fill="#7197a0" stroke="none" stroke-width="0" stroke-linejoin="round"/><polygon points="359.92,502.82 342.26,492.18 342.26,484.59 359.92,495.23" fill="#7197a0" stroke="none" stroke-width="0" stroke-linejoin="round"/><polygon points="466.93,555.79 449.28,545.15 449.28,537.56 466.93,548.20" fill="#7197a0" stroke="none" stroke-width="0" stroke-linejoin="round"/><polygon points="440.18,539.67 422.52,529.03 422.52,521.44 440.18,532.08" fill="#7197a0" stroke="none" stroke-width="0" stroke-linejoin="round"/><polygon points="413.43,523.55 395.77,512.91 395.77,505.32 413.43,515.96" fill="#7197a0" stroke="none" stroke-width="0" stroke-linejoin="round"/><polygon points="386.68,507.43 369.02,496.80 369.02,489.20 386.68,499.84" fill="#7197a0" stroke="none" stroke-width="0" stroke-linejoin="round"/><polygon points="359.92,491.32 342.26,480.68 342.26,473.08 359.92,483.72" fill="#7197a0" stroke="none" stroke-width="0" stroke-linejoin="round"/><polygon points="466.93,544.29 449.28,533.65 449.28,526.05 466.93,536.69" fill="#7197a0" stroke="none" stroke-width="0" stroke-linejoin="round"/><polygon points="440.18,528.17 422.52,517.53 422.52,509.94 440.18,520.57" fill="#7197a0" stroke="none" stroke-width="0" stroke-linejoin="round"/><polygon points="413.43,512.05 395.77,501.41 395.77,493.82 413.43,504.46" fill="#7197a0" stroke="none" stroke-width="0" stroke-linejoin="round"/><polygon points="386.68,495.93 369.02,485.29 369.02,477.70 386.68,488.34" fill="#7197a0" stroke="none" stroke-width="0" stroke-linejoin="round"/><polygon points="359.92,479.81 342.26,469.17 342.26,461.58 359.92,472.22" fill="#7197a0" stroke="none" stroke-width="0" stroke-linejoin="round"/><polygon points="466.93,532.78 449.28,522.14 449.28,514.55 466.93,525.19" fill="#7197a0" stroke="none" stroke-width="0" stroke-linejoin="round"/><polygon points="440.18,516.66 422.52,506.02 422.52,498.43 440.18,509.07" fill="#7197a0" stroke="none" stroke-width="0" stroke-linejoin="round"/><polygon points="413.43,500.54 395.77,489.91 395.77,482.31 413.43,492.95" fill="#7197a0" stroke="none" stroke-width="0" stroke-linejoin="round"/><polygon points="386.68,484.43 369.02,473.79 369.02,466.20 386.68,476.83" fill="#7197a0" stroke="none" stroke-width="0" stroke-linejoin="round"/><polygon points="359.92,468.31 342.26,457.67 342.26,450.08 359.92,460.71" fill="#7197a0" stroke="none" stroke-width="0" stroke-linejoin="round"/><polygon points="466.93,521.28 449.28,510.64 449.28,503.05 466.93,513.69" fill="#7197a0" stroke="none" stroke-width="0" stroke-linejoin="round"/><polygon points="440.18,505.16 422.52,494.52 422.52,486.93 440.18,497.57" fill="#7197a0" stroke="none" stroke-width="0" stroke-linejoin="round"/><polygon points="413.43,489.04 395.77,478.40 395.77,470.81 413.43,481.45" fill="#7197a0" stroke="none" stroke-width="0" stroke-linejoin="round"/><polygon points="386.68,472.92 369.02,462.28 369.02,454.69 386.68,465.33" fill="#7197a0" stroke="none" stroke-width="0" stroke-linejoin="round"/><polygon points="359.92,456.80 342.26,446.17 342.26,438.57 359.92,449.21" fill="#7197a0" stroke="none" stroke-width="0" stroke-linejoin="round"/><polygon points="606.90,528.34 452.73,642.91 452.73,626.86 606.90,512.29" fill="#596057" stroke="none" stroke-width="0" stroke-linejoin="round"/><polygon points="409.98,437.69 326.88,499.45 326.88,266.70 409.98,204.94" fill="#8f9590" stroke="none" stroke-width="0" stroke-linejoin="round"/><polygon points="407.16,434.85 396.19,443.00 396.19,423.80 407.16,415.64" fill="#527c89" stroke="none" stroke-width="0" stroke-linejoin="round"/><polygon points="390.54,447.20 379.57,455.35 379.57,436.15 390.54,428.00" fill="#527c89" stroke="none" stroke-width="0" stroke-linejoin="round"/><polygon points="373.92,459.55 362.95,467.70 362.95,448.50 373.92,440.35" fill="#527c89" stroke="none" stroke-width="0" stroke-linejoin="round"/><polygon points="357.29,471.90 346.32,480.05 346.32,460.85 357.29,452.70" fill="#527c89" stroke="none" stroke-width="0" stroke-linejoin="round"/><polygon points="340.67,484.25 329.70,492.41 329.70,473.20 340.67,465.05" fill="#527c89" stroke="none" stroke-width="0" stroke-linejoin="round"/><polygon points="407.16,405.75 396.19,413.90 396.19,394.70 407.16,386.55" fill="#527c89" stroke="none" stroke-width="0" stroke-linejoin="round"/><polygon points="390.54,418.10 379.57,426.26 379.57,407.05 390.54,398.90" fill="#527c89" stroke="none" stroke-width="0" stroke-linejoin="round"/><polygon points="373.92,430.46 362.95,438.61 362.95,419.41 373.92,411.25" fill="#527c89" stroke="none" stroke-width="0" stroke-linejoin="round"/><polygon points="357.29,442.81 346.32,450.96 346.32,431.76 357.29,423.61" fill="#527c89" stroke="none" stroke-width="0" stroke-linejoin="round"/><polygon points="340.67,455.16 329.70,463.31 329.70,444.11 340.67,435.96" fill="#527c89" stroke="none" stroke-width="0" stroke-linejoin="round"/><polygon points="407.16,376.66 396.19,384.81 396.19,365.61 407.16,357.46" fill="#527c89" stroke="none" stroke-width="0" stroke-linejoin="round"/><polygon points="390.54,389.01 379.57,397.16 379.57,377.96 390.54,369.81" fill="#527c89" stroke="none" stroke-width="0" stroke-linejoin="round"/><polygon points="373.92,401.36 362.95,409.51 362.95,390.31 373.92,382.16" fill="#527c89" stroke="none" stroke-width="0" stroke-linejoin="round"/><polygon points="357.29,413.71 346.32,421.87 346.32,402.66 357.29,394.51" fill="#527c89" stroke="none" stroke-width="0" stroke-linejoin="round"/><polygon points="340.67,426.07 329.70,434.22 329.70,415.02 340.67,406.86" fill="#527c89" stroke="none" stroke-width="0" stroke-linejoin="round"/><polygon points="407.16,347.56 396.19,355.72 396.19,336.51 407.16,328.36" fill="#527c89" stroke="none" stroke-width="0" stroke-linejoin="round"/><polygon points="390.54,359.92 379.57,368.07 379.57,348.87 390.54,340.71" fill="#527c89" stroke="none" stroke-width="0" stroke-linejoin="round"/><polygon points="373.92,372.27 362.95,380.42 362.95,361.22 373.92,353.07" fill="#527c89" stroke="none" stroke-width="0" stroke-linejoin="round"/><polygon points="357.29,384.62 346.32,392.77 346.32,373.57 357.29,365.42" fill="#527c89" stroke="none" stroke-width="0" stroke-linejoin="round"/><polygon points="340.67,396.97 329.70,405.12 329.70,385.92 340.67,377.77" fill="#527c89" stroke="none" stroke-width="0" stroke-linejoin="round"/><polygon points="407.16,318.47 396.19,326.62 396.19,307.42 407.16,299.27" fill="#527c89" stroke="none" stroke-width="0" stroke-linejoin="round"/><polygon points="390.54,330.82 379.57,338.97 379.57,319.77 390.54,311.62" fill="#527c89" stroke="none" stroke-width="0" stroke-linejoin="round"/><polygon points="373.92,343.17 362.95,351.33 362.95,332.12 373.92,323.97" fill="#527c89" stroke="none" stroke-width="0" stroke-linejoin="round"/><polygon points="357.29,355.53 346.32,363.68 346.32,344.48 357.29,336.32" fill="#527c89" stroke="none" stroke-width="0" stroke-linejoin="round"/><polygon points="340.67,367.88 329.70,376.03 329.70,356.83 340.67,348.68" fill="#527c89" stroke="none" stroke-width="0" stroke-linejoin="round"/><polygon points="407.16,289.38 396.19,297.53 396.19,278.33 407.16,270.17" fill="#527c89" stroke="none" stroke-width="0" stroke-linejoin="round"/><polygon points="390.54,301.73 379.57,309.88 379.57,290.68 390.54,282.53" fill="#527c89" stroke="none" stroke-width="0" stroke-linejoin="round"/><polygon points="373.92,314.08 362.95,322.23 362.95,303.03 373.92,294.88" fill="#527c89" stroke="none" stroke-width="0" stroke-linejoin="round"/><polygon points="357.29,326.43 346.32,334.58 346.32,315.38 357.29,307.23" fill="#527c89" stroke="none" stroke-width="0" stroke-linejoin="round"/><polygon points="340.67,338.78 329.70,346.94 329.70,327.73 340.67,319.58" fill="#527c89" stroke="none" stroke-width="0" stroke-linejoin="round"/><polygon points="407.16,260.28 396.19,268.43 396.19,249.23 407.16,241.08" fill="#527c89" stroke="none" stroke-width="0" stroke-linejoin="round"/><polygon points="390.54,272.63 379.57,280.79 379.57,261.58 390.54,253.43" fill="#527c89" stroke="none" stroke-width="0" stroke-linejoin="round"/><polygon points="373.92,284.99 362.95,293.14 362.95,273.94 373.92,265.78" fill="#527c89" stroke="none" stroke-width="0" stroke-linejoin="round"/><polygon points="357.29,297.34 346.32,305.49 346.32,286.29 357.29,278.14" fill="#527c89" stroke="none" stroke-width="0" stroke-linejoin="round"/><polygon points="340.67,309.69 329.70,317.84 329.70,298.64 340.67,290.49" fill="#527c89" stroke="none" stroke-width="0" stroke-linejoin="round"/><polygon points="407.16,231.19 396.19,239.34 396.19,220.14 407.16,211.99" fill="#527c89" stroke="none" stroke-width="0" stroke-linejoin="round"/><polygon points="390.54,243.54 379.57,251.69 379.57,232.49 390.54,224.34" fill="#527c89" stroke="none" stroke-width="0" stroke-linejoin="round"/><polygon points="373.92,255.89 362.95,264.04 362.95,244.84 373.92,236.69" fill="#527c89" stroke="none" stroke-width="0" stroke-linejoin="round"/><polygon points="357.29,268.24 346.32,276.40 346.32,257.19 357.29,249.04" fill="#527c89" stroke="none" stroke-width="0" stroke-linejoin="round"/><polygon points="340.67,280.60 329.70,288.75 329.70,269.55 340.67,261.39" fill="#527c89" stroke="none" stroke-width="0" stroke-linejoin="round"/><polygon points="321.34,482.15 240.12,433.21 240.12,228.39 321.34,277.33" fill="#b8c0b9" stroke="none" stroke-width="0" stroke-linejoin="round"/><polygon points="323.74,492.62 311.56,485.28 311.56,466.07 323.74,473.41" fill="#7197a0" stroke="none" stroke-width="0" stroke-linejoin="round"/><polygon points="305.28,481.49 293.10,474.15 293.10,454.95 305.28,462.29" fill="#7197a0" stroke="none" stroke-width="0" stroke-linejoin="round"/><polygon points="286.82,470.37 274.64,463.03 274.64,443.83 286.82,451.17" fill="#7197a0" stroke="none" stroke-width="0" stroke-linejoin="round"/><polygon points="268.36,459.25 256.18,451.91 256.18,432.71 268.36,440.05" fill="#7197a0" stroke="none" stroke-width="0" stroke-linejoin="round"/><polygon points="249.90,448.13 237.72,440.79 237.72,421.59 249.90,428.93" fill="#7197a0" stroke="none" stroke-width="0" stroke-linejoin="round"/><polygon points="323.74,463.52 311.56,456.18 311.56,436.98 323.74,444.32" fill="#7197a0" stroke="none" stroke-width="0" stroke-linejoin="round"/><polygon points="305.28,452.40 293.10,445.06 293.10,425.86 305.28,433.20" fill="#7197a0" stroke="none" stroke-width="0" stroke-linejoin="round"/><polygon points="286.82,441.28 274.64,433.94 274.64,414.74 286.82,422.08" fill="#7197a0" stroke="none" stroke-width="0" stroke-linejoin="round"/><polygon points="268.36,430.16 256.18,422.82 256.18,403.61 268.36,410.95" fill="#7197a0" stroke="none" stroke-width="0" stroke-linejoin="round"/><polygon points="249.90,419.03 237.72,411.69 237.72,392.49 249.90,399.83" fill="#7197a0" stroke="none" stroke-width="0" stroke-linejoin="round"/><polygon points="323.74,434.43 311.56,427.09 311.56,407.88 323.74,415.23" fill="#7197a0" stroke="none" stroke-width="0" stroke-linejoin="round"/><polygon points="305.28,423.31 293.10,415.97 293.10,396.76 305.28,404.10" fill="#7197a0" stroke="none" stroke-width="0" stroke-linejoin="round"/><polygon points="286.82,412.18 274.64,404.84 274.64,385.64 286.82,392.98" fill="#7197a0" stroke="none" stroke-width="0" stroke-linejoin="round"/><polygon points="268.36,401.06 256.18,393.72 256.18,374.52 268.36,381.86" fill="#7197a0" stroke="none" stroke-width="0" stroke-linejoin="round"/><polygon points="249.90,389.94 237.72,382.60 237.72,363.40 249.90,370.74" fill="#7197a0" stroke="none" stroke-width="0" stroke-linejoin="round"/><polygon points="323.74,405.33 311.56,397.99 311.56,378.79 323.74,386.13" fill="#7197a0" stroke="none" stroke-width="0" stroke-linejoin="round"/><polygon points="305.28,394.21 293.10,386.87 293.10,367.67 305.28,375.01" fill="#7197a0" stroke="none" stroke-width="0" stroke-linejoin="round"/><polygon points="286.82,383.09 274.64,375.75 274.64,356.55 286.82,363.89" fill="#7197a0" stroke="none" stroke-width="0" stroke-linejoin="round"/><polygon points="268.36,371.97 256.18,364.63 256.18,345.43 268.36,352.77" fill="#7197a0" stroke="none" stroke-width="0" stroke-linejoin="round"/><polygon points="249.90,360.85 237.72,353.51 237.72,334.30 249.90,341.64" fill="#7197a0" stroke="none" stroke-width="0" stroke-linejoin="round"/><polygon points="323.74,376.24 311.56,368.90 311.56,349.70 323.74,357.04" fill="#7197a0" stroke="none" stroke-width="0" stroke-linejoin="round"/><polygon points="305.28,365.12 293.10,357.78 293.10,338.57 305.28,345.92" fill="#7197a0" stroke="none" stroke-width="0" stroke-linejoin="round"/><polygon points="286.82,354.00 274.64,346.66 274.64,327.45 286.82,334.79" fill="#7197a0" stroke="none" stroke-width="0" stroke-linejoin="round"/><polygon points="268.36,342.87 256.18,335.53 256.18,316.33 268.36,323.67" fill="#7197a0" stroke="none" stroke-width="0" stroke-linejoin="round"/><polygon points="249.90,331.75 237.72,324.41 237.72,305.21 249.90,312.55" fill="#7197a0" stroke="none" stroke-width="0" stroke-linejoin="round"/><polygon points="323.74,347.14 311.56,339.80 311.56,320.60 323.74,327.94" fill="#7197a0" stroke="none" stroke-width="0" stroke-linejoin="round"/><polygon points="305.28,336.02 293.10,328.68 293.10,309.48 305.28,316.82" fill="#7197a0" stroke="none" stroke-width="0" stroke-linejoin="round"/><polygon points="286.82,324.90 274.64,317.56 274.64,298.36 286.82,305.70" fill="#7197a0" stroke="none" stroke-width="0" stroke-linejoin="round"/><polygon points="268.36,313.78 256.18,306.44 256.18,287.24 268.36,294.58" fill="#7197a0" stroke="none" stroke-width="0" stroke-linejoin="round"/><polygon points="249.90,302.66 237.72,295.32 237.72,276.12 249.90,283.46" fill="#7197a0" stroke="none" stroke-width="0" stroke-linejoin="round"/><polygon points="323.74,318.05 311.56,310.71 311.56,291.51 323.74,298.85" fill="#7197a0" stroke="none" stroke-width="0" stroke-linejoin="round"/><polygon points="305.28,306.93 293.10,299.59 293.10,280.39 305.28,287.73" fill="#7197a0" stroke="none" stroke-width="0" stroke-linejoin="round"/><polygon points="286.82,295.81 274.64,288.47 274.64,269.26 286.82,276.61" fill="#7197a0" stroke="none" stroke-width="0" stroke-linejoin="round"/><polygon points="268.36,284.69 256.18,277.35 256.18,258.14 268.36,265.48" fill="#7197a0" stroke="none" stroke-width="0" stroke-linejoin="round"/><polygon points="249.90,273.56 237.72,266.22 237.72,247.02 249.90,254.36" fill="#7197a0" stroke="none" stroke-width="0" stroke-linejoin="round"/><polygon points="323.74,288.96 311.56,281.62 311.56,262.41 323.74,269.75" fill="#7197a0" stroke="none" stroke-width="0" stroke-linejoin="round"/><polygon points="305.28,277.83 293.10,270.49 293.10,251.29 305.28,258.63" fill="#7197a0" stroke="none" stroke-width="0" stroke-linejoin="round"/><polygon points="286.82,266.71 274.64,259.37 274.64,240.17 286.82,247.51" fill="#7197a0" stroke="none" stroke-width="0" stroke-linejoin="round"/><polygon points="268.36,255.59 256.18,248.25 256.18,229.05 268.36,236.39" fill="#7197a0" stroke="none" stroke-width="0" stroke-linejoin="round"/><polygon points="249.90,244.47 237.72,237.13 237.72,217.93 249.90,225.27" fill="#7197a0" stroke="none" stroke-width="0" stroke-linejoin="round"/><polygon points="543.75,518.28 471.48,571.99 471.48,514.47 543.75,460.77" fill="#8f9590" stroke="none" stroke-width="0" stroke-linejoin="round"/><polygon points="541.29,518.16 531.75,525.24 531.75,517.65 541.29,510.56" fill="#527c89" stroke="none" stroke-width="0" stroke-linejoin="round"/><polygon points="526.84,528.90 517.30,535.98 517.30,528.39 526.84,521.30" fill="#527c89" stroke="none" stroke-width="0" stroke-linejoin="round"/><polygon points="512.39,539.64 502.85,546.73 502.85,539.13 512.39,532.04" fill="#527c89" stroke="none" stroke-width="0" stroke-linejoin="round"/><polygon points="497.93,550.38 488.39,557.47 488.39,549.87 497.93,542.78" fill="#527c89" stroke="none" stroke-width="0" stroke-linejoin="round"/><polygon points="483.48,561.12 473.94,568.21 473.94,560.61 483.48,553.53" fill="#527c89" stroke="none" stroke-width="0" stroke-linejoin="round"/><polygon points="541.29,506.65 531.75,513.74 531.75,506.15 541.29,499.06" fill="#527c89" stroke="none" stroke-width="0" stroke-linejoin="round"/><polygon points="526.84,517.39 517.30,524.48 517.30,516.89 526.84,509.80" fill="#527c89" stroke="none" stroke-width="0" stroke-linejoin="round"/><polygon points="512.39,528.13 502.85,535.22 502.85,527.63 512.39,520.54" fill="#527c89" stroke="none" stroke-width="0" stroke-linejoin="round"/><polygon points="497.93,538.87 488.39,545.96 488.39,538.37 497.93,531.28" fill="#527c89" stroke="none" stroke-width="0" stroke-linejoin="round"/><polygon points="483.48,549.61 473.94,556.70 473.94,549.11 483.48,542.02" fill="#527c89" stroke="none" stroke-width="0" stroke-linejoin="round"/><polygon points="541.29,495.15 531.75,502.24 531.75,494.64 541.29,487.55" fill="#527c89" stroke="none" stroke-width="0" stroke-linejoin="round"/><polygon points="526.84,505.89 517.30,512.98 517.30,505.38 526.84,498.30" fill="#527c89" stroke="none" stroke-width="0" stroke-linejoin="round"/><polygon points="512.39,516.63 502.85,523.72 502.85,516.13 512.39,509.04" fill="#527c89" stroke="none" stroke-width="0" stroke-linejoin="round"/><polygon points="497.93,527.37 488.39,534.46 488.39,526.87 497.93,519.78" fill="#527c89" stroke="none" stroke-width="0" stroke-linejoin="round"/><polygon points="483.48,538.11 473.94,545.20 473.94,537.61 483.48,530.52" fill="#527c89" stroke="none" stroke-width="0" stroke-linejoin="round"/><polygon points="541.29,483.64 531.75,490.73 531.75,483.14 541.29,476.05" fill="#527c89" stroke="none" stroke-width="0" stroke-linejoin="round"/><polygon points="526.84,494.38 517.30,501.47 517.30,493.88 526.84,486.79" fill="#527c89" stroke="none" stroke-width="0" stroke-linejoin="round"/><polygon points="512.39,505.13 502.85,512.21 502.85,504.62 512.39,497.53" fill="#527c89" stroke="none" stroke-width="0" stroke-linejoin="round"/><polygon points="497.93,515.87 488.39,522.95 488.39,515.36 497.93,508.27" fill="#527c89" stroke="none" stroke-width="0" stroke-linejoin="round"/><polygon points="483.48,526.61 473.94,533.70 473.94,526.10 483.48,519.01" fill="#527c89" stroke="none" stroke-width="0" stroke-linejoin="round"/><polygon points="541.29,472.14 531.75,479.23 531.75,471.64 541.29,464.55" fill="#527c89" stroke="none" stroke-width="0" stroke-linejoin="round"/><polygon points="526.84,482.88 517.30,489.97 517.30,482.38 526.84,475.29" fill="#527c89" stroke="none" stroke-width="0" stroke-linejoin="round"/><polygon points="512.39,493.62 502.85,500.71 502.85,493.12 512.39,486.03" fill="#527c89" stroke="none" stroke-width="0" stroke-linejoin="round"/><polygon points="497.93,504.36 488.39,511.45 488.39,503.86 497.93,496.77" fill="#527c89" stroke="none" stroke-width="0" stroke-linejoin="round"/><polygon points="483.48,515.10 473.94,522.19 473.94,514.60 483.48,507.51" fill="#527c89" stroke="none" stroke-width="0" stroke-linejoin="round"/><polygon points="463.40,512.64 340.98,438.89 340.98,435.94 463.40,509.70" fill="#b8c0b9" stroke="none" stroke-width="0" stroke-linejoin="round"/><polygon points="548.83,460.59 471.75,517.87 471.75,514.53 548.83,457.24" fill="#8f9590" stroke="none" stroke-width="0" stroke-linejoin="round"/><polygon points="454.11,600.74 449.77,603.96 449.77,575.87 454.11,572.65" fill="#757271" stroke="none" stroke-width="0" stroke-linejoin="round"/><polygon points="449.77,603.96 444.96,601.06 444.96,572.97 449.77,575.87" fill="#969392" stroke="none" stroke-width="0" stroke-linejoin="round"/><polygon points="449.29,569.75 454.11,572.65 449.77,575.87 444.96,572.97" fill="#aaa0a1" stroke="none" stroke-width="0" stroke-linejoin="round"/><polygon points="317.68,149.33 409.98,204.94 326.88,266.70 234.58,211.09" fill="#d4d9cf" stroke="none" stroke-width="0" stroke-linejoin="round"/><circle cx="440.53" cy="563.45" r="12" fill="#f3d7e7" stroke="#a6a4b4" stroke-width=".7"/><circle cx="458.53" cy="561.45" r="11" fill="#e4bed5" stroke="#a6a4b4" stroke-width=".7"/><circle cx="449.53" cy="551.45" r="13" fill="#f7e4ee" stroke="#a6a4b4" stroke-width=".7"/><circle cx="449.53" cy="568.45" r="10" fill="#f3d7e7" stroke="#a6a4b4" stroke-width=".7"/><polygon points="317.42,139.91 415.07,198.74 327.14,264.08 229.49,205.25" fill="#d4d9cf" stroke="none" stroke-width="0" stroke-linejoin="round"/><polygon points="318.35,141.78 397.27,189.33 326.21,242.14 247.29,194.59" fill="#d4d9cf" stroke="none" stroke-width="0" stroke-linejoin="round"/><polygon points="318.08,135.17 402.36,185.94 326.48,242.33 242.20,191.56" fill="#d4d9cf" stroke="none" stroke-width="0" stroke-linejoin="round"/><polygon points="415.07,204.76 327.14,270.10 327.14,264.08 415.07,198.74" fill="#8f9590" stroke="none" stroke-width="0" stroke-linejoin="round"/><polygon points="397.27,199.37 326.21,252.17 326.21,242.14 397.27,189.33" fill="#8f9590" stroke="none" stroke-width="0" stroke-linejoin="round"/><polygon points="394.86,199.46 385.48,206.43 385.48,199.80 394.86,192.83" fill="#527c89" stroke="none" stroke-width="0" stroke-linejoin="round"/><polygon points="380.64,210.02 371.26,216.99 371.26,210.37 380.64,203.40" fill="#527c89" stroke="none" stroke-width="0" stroke-linejoin="round"/><polygon points="366.43,220.58 357.05,227.55 357.05,220.93 366.43,213.96" fill="#527c89" stroke="none" stroke-width="0" stroke-linejoin="round"/><polygon points="352.22,231.14 342.84,238.11 342.84,231.49 352.22,224.52" fill="#527c89" stroke="none" stroke-width="0" stroke-linejoin="round"/><polygon points="338.01,241.70 328.63,248.67 328.63,242.05 338.01,235.08" fill="#527c89" stroke="none" stroke-width="0" stroke-linejoin="round"/><polygon points="327.14,270.10 229.49,211.27 229.49,205.25 327.14,264.08" fill="#b8c0b9" stroke="none" stroke-width="0" stroke-linejoin="round"/><polygon points="326.21,252.17 247.29,204.63 247.29,194.59 326.21,242.14" fill="#b8c0b9" stroke="none" stroke-width="0" stroke-linejoin="round"/><polygon points="323.53,248.85 313.11,242.58 313.11,235.95 323.53,242.23" fill="#7197a0" stroke="none" stroke-width="0" stroke-linejoin="round"/><polygon points="307.74,239.34 297.33,233.07 297.33,226.44 307.74,232.72" fill="#7197a0" stroke="none" stroke-width="0" stroke-linejoin="round"/><polygon points="291.96,229.83 281.54,223.56 281.54,216.93 291.96,223.21" fill="#7197a0" stroke="none" stroke-width="0" stroke-linejoin="round"/><polygon points="276.17,220.32 265.76,214.05 265.76,207.42 276.17,213.70" fill="#7197a0" stroke="none" stroke-width="0" stroke-linejoin="round"/><polygon points="260.39,210.81 249.97,204.54 249.97,197.91 260.39,204.19" fill="#7197a0" stroke="none" stroke-width="0" stroke-linejoin="round"/><polygon points="402.36,189.15 326.48,245.54 326.48,242.33 402.36,185.94" fill="#8f9590" stroke="none" stroke-width="0" stroke-linejoin="round"/><polygon points="326.48,245.54 242.20,194.77 242.20,191.56 326.48,242.33" fill="#b8c0b9" stroke="none" stroke-width="0" stroke-linejoin="round"/></svg>