<svg xmlns="http://www.w3.org/2000/svg" width="760" height="640" viewBox="0 0 760 640"><title>洪山科创大厦 / rotation 180</title><polygon points="315.04,354.89 310.71,358.11 310.71,330.02 315.04,326.79" fill="#757271" stroke="none" stroke-width="0" stroke-linejoin="round"/><polygon points="310.71,358.11 305.89,355.21 305.89,327.12 310.71,330.02" fill="#969392" stroke="none" stroke-width="0" stroke-linejoin="round"/><polygon points="310.71,330.02 305.89,327.12 310.23,323.89 315.04,326.79" fill="#aaa0a1" stroke="none" stroke-width="0" stroke-linejoin="round"/><circle cx="301.47" cy="317.59" r="12" fill="#f3d7e7" stroke="#a6a4b4" stroke-width=".7"/><circle cx="319.47" cy="315.59" r="11" fill="#e4bed5" stroke="#a6a4b4" stroke-width=".7"/><circle cx="310.47" cy="305.59" r="13" fill="#f7e4ee" stroke="#a6a4b4" stroke-width=".7"/><circle cx="310.47" cy="322.59" r="10" fill="#f3d7e7" stroke="#a6a4b4" stroke-width=".7"/><polygon points="193.26,443.59 188.93,446.81 188.93,418.72 193.26,415.50" fill="#757271" stroke="none" stroke-width="0" stroke-linejoin="round"/><polygon points="188.93,446.81 184.11,443.91 184.11,415.82 188.93,418.72" fill="#969392" stroke="none" stroke-width="0" stroke-linejoin="round"/><polygon points="188.93,418.72 184.11,415.82 188.45,412.59 193.26,415.50" fill="#aaa0a1" stroke="none" stroke-width="0" stroke-linejoin="round"/><circle cx="179.69" cy="406.29" r="12" fill="#f3d7e7" stroke="#a6a4b4" stroke-width=".7"/><circle cx="197.69" cy="404.29" r="11" fill="#e4bed5" stroke="#a6a4b4" stroke-width=".7"/><circle cx="188.69" cy="394.29" r="13" fill="#f7e4ee" stroke="#a6a4b4" stroke-width=".7"/><circle cx="188.69" cy="411.29" r="10" fill="#f3d7e7" stroke="#a6a4b4" stroke-width=".7"/><polygon points="452.73,626.86 153.10,446.33 307.27,331.76 606.90,512.29" fill="#a8b29a" stroke="none" stroke-width="0" stroke-linejoin="round"/><polygon points="555.39,502.89 452.39,440.84 452.39,416.76 555.39,478.82" fill="#b8c0b9" stroke="none" stroke-width="0" stroke-linejoin="round"/><g transform="matrix(0.50355 0.30339 0 1 458.57 440.47)"><rect y="-18" width="180" height="25" fill="#f4f5fb" stroke="#9aa5bb"/><text x="90" y="0" text-anchor="middle" fill="#4d5c94" font-family="Microsoft YaHei, sans-serif" font-size="17">洪山科创大厦</text></g><polygon points="555.39,478.82 452.39,416.76 456.61,413.63 559.61,475.68" fill="#d4d9cf" stroke="none" stroke-width="0" stroke-linejoin="round"/><polygon points="350.02,460.74 216.25,380.14 288.52,326.44 422.28,407.03" fill="#d4d9cf" stroke="none" stroke-width="0" stroke-linejoin="round"/><polygon points="350.28,460.79 211.17,376.98 288.25,319.69 427.37,403.51" fill="#d4d9cf" stroke="none" stroke-width="0" stroke-linejoin="round"/><polygon points="350.02,518.26 216.25,437.66 216.25,380.14 350.02,460.74" fill="#b8c0b9" stroke="none" stroke-width="0" stroke-linejoin="round"/><polygon points="345.47,513.56 327.81,502.92 327.81,495.33 345.47,505.97" fill="#7197a0" stroke="none" stroke-width="0" stroke-linejoin="round"/><polygon points="318.72,497.44 301.06,486.80 301.06,479.21 318.72,489.85" fill="#7197a0" stroke="none" stroke-width="0" stroke-linejoin="round"/><polygon points="291.96,481.32 274.31,470.68 274.31,463.09 291.96,473.73" fill="#7197a0" stroke="none" stroke-width="0" stroke-linejoin="round"/><polygon points="265.21,465.20 247.55,454.57 247.55,446.97 265.21,457.61" fill="#7197a0" stroke="none" stroke-width="0" stroke-linejoin="round"/><polygon points="238.46,449.09 220.80,438.45 220.80,430.86 238.46,441.49" fill="#7197a0" stroke="none" stroke-width="0" stroke-linejoin="round"/><polygon points="345.47,502.06 327.81,491.42 327.81,483.83 345.47,494.46" fill="#7197a0" stroke="none" stroke-width="0" stroke-linejoin="round"/><polygon points="318.72,485.94 301.06,475.30 301.06,467.71 318.72,478.35" fill="#7197a0" stroke="none" stroke-width="0" stroke-linejoin="round"/><polygon points="291.96,469.82 274.31,459.18 274.31,451.59 291.96,462.23" fill="#7197a0" stroke="none" stroke-width="0" stroke-linejoin="round"/><polygon points="265.21,453.70 247.55,443.06 247.55,435.47 265.21,446.11" fill="#7197a0" stroke="none" stroke-width="0" stroke-linejoin="round"/><polygon points="238.46,437.58 220.80,426.94 220.80,419.35 238.46,429.99" fill="#7197a0" stroke="none" stroke-width="0" stroke-linejoin="round"/><polygon points="345.47,490.55 327.81,479.91 327.81,472.32 345.47,482.96" fill="#7197a0" stroke="none" stroke-width="0" stroke-linejoin="round"/><polygon points="318.72,474.43 301.06,463.80 301.06,456.20 318.72,466.84" fill="#7197a0" stroke="none" stroke-width="0" stroke-linejoin="round"/><polygon points="291.96,458.32 274.31,447.68 274.31,440.08 291.96,450.72" fill="#7197a0" stroke="none" stroke-width="0" stroke-linejoin="round"/><polygon points="265.21,442.20 247.55,431.56 247.55,423.97 265.21,434.60" fill="#7197a0" stroke="none" stroke-width="0" stroke-linejoin="round"/><polygon points="238.46,426.08 220.80,415.44 220.80,407.85 238.46,418.49" fill="#7197a0" stroke="none" stroke-width="0" stroke-linejoin="round"/><polygon points="345.47,479.05 327.81,468.41 327.81,460.82 345.47,471.46" fill="#7197a0" stroke="none" stroke-width="0" stroke-linejoin="round"/><polygon points="318.72,462.93 301.06,452.29 301.06,444.70 318.72,455.34" fill="#7197a0" stroke="none" stroke-width="0" stroke-linejoin="round"/><polygon points="291.96,446.81 274.31,436.17 274.31,428.58 291.96,439.22" fill="#7197a0" stroke="none" stroke-width="0" stroke-linejoin="round"/><polygon points="265.21,430.69 247.55,420.05 247.55,412.46 265.21,423.10" fill="#7197a0" stroke="none" stroke-width="0" stroke-linejoin="round"/><polygon points="238.46,414.57 220.80,403.94 220.80,396.34 238.46,406.98" fill="#7197a0" stroke="none" stroke-width="0" stroke-linejoin="round"/><polygon points="345.47,467.54 327.81,456.91 327.81,449.31 345.47,459.95" fill="#7197a0" stroke="none" stroke-width="0" stroke-linejoin="round"/><polygon points="318.72,451.43 301.06,440.79 301.06,433.20 318.72,443.83" fill="#7197a0" stroke="none" stroke-width="0" stroke-linejoin="round"/><polygon points="291.96,435.31 274.31,424.67 274.31,417.08 291.96,427.71" fill="#7197a0" stroke="none" stroke-width="0" stroke-linejoin="round"/><polygon points="265.21,419.19 247.55,408.55 247.55,400.96 265.21,411.60" fill="#7197a0" stroke="none" stroke-width="0" stroke-linejoin="round"/><polygon points="238.46,403.07 220.80,392.43 220.80,384.84 238.46,395.48" fill="#7197a0" stroke="none" stroke-width="0" stroke-linejoin="round"/><polygon points="559.61,499.76 555.39,502.89 555.39,478.82 559.61,475.68" fill="#8f9590" stroke="none" stroke-width="0" stroke-linejoin="round"/><polygon points="422.28,464.55 350.02,518.26 350.02,460.74 422.28,407.03" fill="#8f9590" stroke="none" stroke-width="0" stroke-linejoin="round"/><polygon points="419.83,464.42 410.29,471.51 410.29,463.92 419.83,456.83" fill="#527c89" stroke="none" stroke-width="0" stroke-linejoin="round"/><polygon points="405.37,475.16 395.83,482.25 395.83,474.66 405.37,467.57" fill="#527c89" stroke="none" stroke-width="0" stroke-linejoin="round"/><polygon points="390.92,485.90 381.38,492.99 381.38,485.40 390.92,478.31" fill="#527c89" stroke="none" stroke-width="0" stroke-linejoin="round"/><polygon points="376.47,496.64 366.93,503.73 366.93,496.14 376.47,489.05" fill="#527c89" stroke="none" stroke-width="0" stroke-linejoin="round"/><polygon points="362.01,507.39 352.47,514.47 352.47,506.88 362.01,499.79" fill="#527c89" stroke="none" stroke-width="0" stroke-linejoin="round"/><polygon points="419.83,452.92 410.29,460.01 410.29,452.41 419.83,445.33" fill="#527c89" stroke="none" stroke-width="0" stroke-linejoin="round"/><polygon points="405.37,463.66 395.83,470.75 395.83,463.16 405.37,456.07" fill="#527c89" stroke="none" stroke-width="0" stroke-linejoin="round"/><polygon points="390.92,474.40 381.38,481.49 381.38,473.90 390.92,466.81" fill="#527c89" stroke="none" stroke-width="0" stroke-linejoin="round"/><polygon points="376.47,485.14 366.93,492.23 366.93,484.64 376.47,477.55" fill="#527c89" stroke="none" stroke-width="0" stroke-linejoin="round"/><polygon points="362.01,495.88 352.47,502.97 352.47,495.38 362.01,488.29" fill="#527c89" stroke="none" stroke-width="0" stroke-linejoin="round"/><polygon points="419.83,441.41 410.29,448.50 410.29,440.91 419.83,433.82" fill="#527c89" stroke="none" stroke-width="0" stroke-linejoin="round"/><polygon points="405.37,452.15 395.83,459.24 395.83,451.65 405.37,444.56" fill="#527c89" stroke="none" stroke-width="0" stroke-linejoin="round"/><polygon points="390.92,462.90 381.38,469.98 381.38,462.39 390.92,455.30" fill="#527c89" stroke="none" stroke-width="0" stroke-linejoin="round"/><polygon points="376.47,473.64 366.93,480.73 366.93,473.13 376.47,466.04" fill="#527c89" stroke="none" stroke-width="0" stroke-linejoin="round"/><polygon points="362.01,484.38 352.47,491.47 352.47,483.87 362.01,476.78" fill="#527c89" stroke="none" stroke-width="0" stroke-linejoin="round"/><polygon points="419.83,429.91 410.29,437.00 410.29,429.41 419.83,422.32" fill="#527c89" stroke="none" stroke-width="0" stroke-linejoin="round"/><polygon points="405.37,440.65 395.83,447.74 395.83,440.15 405.37,433.06" fill="#527c89" stroke="none" stroke-width="0" stroke-linejoin="round"/><polygon points="390.92,451.39 381.38,458.48 381.38,450.89 390.92,443.80" fill="#527c89" stroke="none" stroke-width="0" stroke-linejoin="round"/><polygon points="376.47,462.13 366.93,469.22 366.93,461.63 376.47,454.54" fill="#527c89" stroke="none" stroke-width="0" stroke-linejoin="round"/><polygon points="362.01,472.87 352.47,479.96 352.47,472.37 362.01,465.28" fill="#527c89" stroke="none" stroke-width="0" stroke-linejoin="round"/><polygon points="419.83,418.41 410.29,425.50 410.29,417.90 419.83,410.81" fill="#527c89" stroke="none" stroke-width="0" stroke-linejoin="round"/><polygon points="405.37,429.15 395.83,436.24 395.83,428.64 405.37,421.55" fill="#527c89" stroke="none" stroke-width="0" stroke-linejoin="round"/><polygon points="390.92,439.89 381.38,446.98 381.38,439.38 390.92,432.30" fill="#527c89" stroke="none" stroke-width="0" stroke-linejoin="round"/><polygon points="376.47,450.63 366.93,457.72 366.93,450.13 376.47,443.04" fill="#527c89" stroke="none" stroke-width="0" stroke-linejoin="round"/><polygon points="362.01,461.37 352.47,468.46 352.47,460.87 362.01,453.78" fill="#527c89" stroke="none" stroke-width="0" stroke-linejoin="round"/><polygon points="578.43,511.95 574.09,515.17 574.09,487.08 578.43,483.86" fill="#757271" stroke="none" stroke-width="0" stroke-linejoin="round"/><polygon points="574.09,515.17 569.28,512.27 569.28,484.18 574.09,487.08" fill="#969392" stroke="none" stroke-width="0" stroke-linejoin="round"/><polygon points="452.73,642.91 153.10,462.38 153.10,446.33 452.73,626.86" fill="#737c70" stroke="none" stroke-width="0" stroke-linejoin="round"/><polygon points="350.28,464.14 211.17,380.32 211.17,376.98 350.28,460.79" fill="#b8c0b9" stroke="none" stroke-width="0" stroke-linejoin="round"/><polygon points="574.09,487.08 569.28,484.18 573.61,480.96 578.43,483.86" fill="#aaa0a1" stroke="none" stroke-width="0" stroke-linejoin="round"/><polygon points="427.37,406.85 350.28,464.14 350.28,460.79 427.37,403.51" fill="#8f9590" stroke="none" stroke-width="0" stroke-linejoin="round"/><circle cx="564.85" cy="474.66" r="12" fill="#f3d7e7" stroke="#a6a4b4" stroke-width=".7"/><circle cx="582.85" cy="472.66" r="11" fill="#e4bed5" stroke="#a6a4b4" stroke-width=".7"/><circle cx="573.85" cy="462.66" r="13" fill="#f7e4ee" stroke="#a6a4b4" stroke-width=".7"/><circle cx="573.85" cy="479.66" r="10" fill="#f3d7e7" stroke="#a6a4b4" stroke-width=".7"/><polygon points="606.90,528.34 452.73,642.91 452.73,626.86 606.90,512.29" fill="#596057" stroke="none" stroke-width="0" stroke-linejoin="round"/><polygon points="525.42,512.10 442.32,573.86 442.32,341.11 525.42,279.35" fill="#8f9590" stroke="none" stroke-width="0" stroke-linejoin="round"/><polygon points="522.60,509.26 511.63,517.41 511.63,498.21 522.60,490.06" fill="#527c89" stroke="none" stroke-width="0" stroke-linejoin="round"/><polygon points="505.97,521.61 495.00,529.76 495.00,510.56 505.97,502.41" fill="#527c89" stroke="none" stroke-width="0" stroke-linejoin="round"/><polygon points="489.35,533.96 478.38,542.11 478.38,522.91 489.35,514.76" fill="#527c89" stroke="none" stroke-width="0" stroke-linejoin="round"/><polygon points="472.73,546.31 461.76,554.47 461.76,535.26 472.73,527.11" fill="#527c89" stroke="none" stroke-width="0" stroke-linejoin="round"/><polygon points="456.11,558.67 445.14,566.82 445.14,547.62 456.11,539.46" fill="#527c89" stroke="none" stroke-width="0" stroke-linejoin="round"/><polygon points="522.60,480.16 511.63,488.32 511.63,469.11 522.60,460.96" fill="#527c89" stroke="none" stroke-width="0" stroke-linejoin="round"/><polygon points="505.97,492.52 495.00,500.67 495.00,481.47 505.97,473.31" fill="#527c89" stroke="none" stroke-width="0" stroke-linejoin="round"/><polygon points="489.35,504.87 478.38,513.02 478.38,493.82 489.35,485.67" fill="#527c89" stroke="none" stroke-width="0" stroke-linejoin="round"/><polygon points="472.73,517.22 461.76,525.37 461.76,506.17 472.73,498.02" fill="#527c89" stroke="none" stroke-width="0" stroke-linejoin="round"/><polygon points="456.11,529.57 445.14,537.72 445.14,518.52 456.11,510.37" fill="#527c89" stroke="none" stroke-width="0" stroke-linejoin="round"/><polygon points="522.60,451.07 511.63,459.22 511.63,440.02 522.60,431.87" fill="#527c89" stroke="none" stroke-width="0" stroke-linejoin="round"/><polygon points="505.97,463.42 495.00,471.57 495.00,452.37 505.97,444.22" fill="#527c89" stroke="none" stroke-width="0" stroke-linejoin="round"/><polygon points="489.35,475.77 478.38,483.93 478.38,464.72 489.35,456.57" fill="#527c89" stroke="none" stroke-width="0" stroke-linejoin="round"/><polygon points="472.73,488.13 461.76,496.28 461.76,477.08 472.73,468.92" fill="#527c89" stroke="none" stroke-width="0" stroke-linejoin="round"/><polygon points="456.11,500.48 445.14,508.63 445.14,489.43 456.11,481.28" fill="#527c89" stroke="none" stroke-width="0" stroke-linejoin="round"/><polygon points="522.60,421.98 511.63,430.13 511.63,410.93 522.60,402.77" fill="#527c89" stroke="none" stroke-width="0" stroke-linejoin="round"/><polygon points="505.97,434.33 495.00,442.48 495.00,423.28 505.97,415.13" fill="#527c89" stroke="none" stroke-width="0" stroke-linejoin="round"/><polygon points="489.35,446.68 478.38,454.83 478.38,435.63 489.35,427.48" fill="#527c89" stroke="none" stroke-width="0" stroke-linejoin="round"/><polygon points="472.73,459.03 461.76,467.18 461.76,447.98 472.73,439.83" fill="#527c89" stroke="none" stroke-width="0" stroke-linejoin="round"/><polygon points="456.11,471.38 445.14,479.54 445.14,460.33 456.11,452.18" fill="#527c89" stroke="none" stroke-width="0" stroke-linejoin="round"/><polygon points="522.60,392.88 511.63,401.03 511.63,381.83 522.60,373.68" fill="#527c89" stroke="none" stroke-width="0" stroke-linejoin="round"/><polygon points="505.97,405.23 495.00,413.39 495.00,394.18 505.97,386.03" fill="#527c89" stroke="none" stroke-width="0" stroke-linejoin="round"/><polygon points="489.35,417.59 478.38,425.74 478.38,406.54 489.35,398.38" fill="#527c89" stroke="none" stroke-width="0" stroke-linejoin="round"/><polygon points="472.73,429.94 461.76,438.09 461.76,418.89 472.73,410.74" fill="#527c89" stroke="none" stroke-width="0" stroke-linejoin="round"/><polygon points="456.11,442.29 445.14,450.44 445.14,431.24 456.11,423.09" fill="#527c89" stroke="none" stroke-width="0" stroke-linejoin="round"/><polygon points="522.60,363.79 511.63,371.94 511.63,352.74 522.60,344.59" fill="#527c89" stroke="none" stroke-width="0" stroke-linejoin="round"/><polygon points="505.97,376.14 495.00,384.29 495.00,365.09 505.97,356.94" fill="#527c89" stroke="none" stroke-width="0" stroke-linejoin="round"/><polygon points="489.35,388.49 478.38,396.64 478.38,377.44 489.35,369.29" fill="#527c89" stroke="none" stroke-width="0" stroke-linejoin="round"/><polygon points="472.73,400.84 461.76,409.00 461.76,389.79 472.73,381.64" fill="#527c89" stroke="none" stroke-width="0" stroke-linejoin="round"/><polygon points="456.11,413.20 445.14,421.35 445.14,402.15 456.11,393.99" fill="#527c89" stroke="none" stroke-width="0" stroke-linejoin="round"/><polygon points="522.60,334.69 511.63,342.85 511.63,323.64 522.60,315.49" fill="#527c89" stroke="none" stroke-width="0" stroke-linejoin="round"/><polygon points="505.97,347.05 495.00,355.20 495.00,336.00 505.97,327.84" fill="#527c89" stroke="none" stroke-width="0" stroke-linejoin="round"/><polygon points="489.35,359.40 478.38,367.55 478.38,348.35 489.35,340.20" fill="#527c89" stroke="none" stroke-width="0" stroke-linejoin="round"/><polygon points="472.73,371.75 461.76,379.90 461.76,360.70 472.73,352.55" fill="#527c89" stroke="none" stroke-width="0" stroke-linejoin="round"/><polygon points="456.11,384.10 445.14,392.25 445.14,373.05 456.11,364.90" fill="#527c89" stroke="none" stroke-width="0" stroke-linejoin="round"/><polygon points="522.60,305.60 511.63,313.75 511.63,294.55 522.60,286.40" fill="#527c89" stroke="none" stroke-width="0" stroke-linejoin="round"/><polygon points="505.97,317.95 495.00,326.10 495.00,306.90 505.97,298.75" fill="#527c89" stroke="none" stroke-width="0" stroke-linejoin="round"/><polygon points="489.35,330.30 478.38,338.46 478.38,319.25 489.35,311.10" fill="#527c89" stroke="none" stroke-width="0" stroke-linejoin="round"/><polygon points="472.73,342.66 461.76,350.81 461.76,331.61 472.73,323.45" fill="#527c89" stroke="none" stroke-width="0" stroke-linejoin="round"/><polygon points="456.11,355.01 445.14,363.16 445.14,343.96 456.11,335.81" fill="#527c89" stroke="none" stroke-width="0" stroke-linejoin="round"/><polygon points="442.32,573.86 350.02,518.26 350.02,285.50 442.32,341.11" fill="#b8c0b9" stroke="none" stroke-width="0" stroke-linejoin="round"/><polygon points="439.18,567.03 426.99,559.69 426.99,540.49 439.18,547.83" fill="#7197a0" stroke="none" stroke-width="0" stroke-linejoin="round"/><polygon points="420.72,555.91 408.53,548.57 408.53,529.36 420.72,536.70" fill="#7197a0" stroke="none" stroke-width="0" stroke-linejoin="round"/><polygon points="402.26,544.78 390.07,537.44 390.07,518.24 402.26,525.58" fill="#7197a0" stroke="none" stroke-width="0" stroke-linejoin="round"/><polygon points="383.80,533.66 371.61,526.32 371.61,507.12 383.80,514.46" fill="#7197a0" stroke="none" stroke-width="0" stroke-linejoin="round"/><polygon points="365.34,522.54 353.16,515.20 353.16,496.00 365.34,503.34" fill="#7197a0" stroke="none" stroke-width="0" stroke-linejoin="round"/><polygon points="439.18,537.93 426.99,530.59 426.99,511.39 439.18,518.73" fill="#7197a0" stroke="none" stroke-width="0" stroke-linejoin="round"/><polygon points="420.72,526.81 408.53,519.47 408.53,500.27 420.72,507.61" fill="#7197a0" stroke="none" stroke-width="0" stroke-linejoin="round"/><polygon points="402.26,515.69 390.07,508.35 390.07,489.15 402.26,496.49" fill="#7197a0" stroke="none" stroke-width="0" stroke-linejoin="round"/><polygon points="383.80,504.57 371.61,497.23 371.61,478.03 383.80,485.37" fill="#7197a0" stroke="none" stroke-width="0" stroke-linejoin="round"/><polygon points="365.34,493.45 353.16,486.11 353.16,466.90 365.34,474.24" fill="#7197a0" stroke="none" stroke-width="0" stroke-linejoin="round"/><polygon points="439.18,508.84 426.99,501.50 426.99,482.30 439.18,489.64" fill="#7197a0" stroke="none" stroke-width="0" stroke-linejoin="round"/><polygon points="420.72,497.72 408.53,490.38 408.53,471.18 420.72,478.52" fill="#7197a0" stroke="none" stroke-width="0" stroke-linejoin="round"/><polygon points="402.26,486.60 390.07,479.26 390.07,460.05 402.26,467.39" fill="#7197a0" stroke="none" stroke-width="0" stroke-linejoin="round"/><polygon points="383.80,475.47 371.61,468.13 371.61,448.93 383.80,456.27" fill="#7197a0" stroke="none" stroke-width="0" stroke-linejoin="round"/><polygon points="365.34,464.35 353.16,457.01 353.16,437.81 365.34,445.15" fill="#7197a0" stroke="none" stroke-width="0" stroke-linejoin="round"/><polygon points="439.18,479.75 426.99,472.41 426.99,453.20 439.18,460.54" fill="#7197a0" stroke="none" stroke-width="0" stroke-linejoin="round"/><polygon points="420.72,468.62 408.53,461.28 408.53,442.08 420.72,449.42" fill="#7197a0" stroke="none" stroke-width="0" stroke-linejoin="round"/><polygon points="402.26,457.50 390.07,450.16 390.07,430.96 402.26,438.30" fill="#7197a0" stroke="none" stroke-width="0" stroke-linejoin="round"/><polygon points="383.80,446.38 371.61,439.04 371.61,419.84 383.80,427.18" fill="#7197a0" stroke="none" stroke-width="0" stroke-linejoin="round"/><polygon points="365.34,435.26 353.16,427.92 353.16,408.72 365.34,416.06" fill="#7197a0" stroke="none" stroke-width="0" stroke-linejoin="round"/><polygon points="439.18,450.65 426.99,443.31 426.99,424.11 439.18,431.45" fill="#7197a0" stroke="none" stroke-width="0" stroke-linejoin="round"/><polygon points="420.72,439.53 408.53,432.19 408.53,412.99 420.72,420.33" fill="#7197a0" stroke="none" stroke-width="0" stroke-linejoin="round"/><polygon points="402.26,428.41 390.07,421.07 390.07,401.87 402.26,409.21" fill="#7197a0" stroke="none" stroke-width="0" stroke-linejoin="round"/><polygon points="383.80,417.29 371.61,409.95 371.61,390.74 383.80,398.08" fill="#7197a0" stroke="none" stroke-width="0" stroke-linejoin="round"/><polygon points="365.34,406.16 353.16,398.82 353.16,379.62 365.34,386.96" fill="#7197a0" stroke="none" stroke-width="0" stroke-linejoin="round"/><polygon points="439.18,421.56 426.99,414.22 426.99,395.01 439.18,402.36" fill="#7197a0" stroke="none" stroke-width="0" stroke-linejoin="round"/><polygon points="420.72,410.44 408.53,403.10 408.53,383.89 420.72,391.23" fill="#7197a0" stroke="none" stroke-width="0" stroke-linejoin="round"/><polygon points="402.26,399.31 390.07,391.97 390.07,372.77 402.26,380.11" fill="#7197a0" stroke="none" stroke-width="0" stroke-linejoin="round"/><polygon points="383.80,388.19 371.61,380.85 371.61,361.65 383.80,368.99" fill="#7197a0" stroke="none" stroke-width="0" stroke-linejoin="round"/><polygon points="365.34,377.07 353.16,369.73 353.16,350.53 365.34,357.87" fill="#7197a0" stroke="none" stroke-width="0" stroke-linejoin="round"/><polygon points="439.18,392.46 426.99,385.12 426.99,365.92 439.18,373.26" fill="#7197a0" stroke="none" stroke-width="0" stroke-linejoin="round"/><polygon points="420.72,381.34 408.53,374.00 408.53,354.80 420.72,362.14" fill="#7197a0" stroke="none" stroke-width="0" stroke-linejoin="round"/><polygon points="402.26,370.22 390.07,362.88 390.07,343.68 402.26,351.02" fill="#7197a0" stroke="none" stroke-width="0" stroke-linejoin="round"/><polygon points="383.80,359.10 371.61,351.76 371.61,332.56 383.80,339.90" fill="#7197a0" stroke="none" stroke-width="0" stroke-linejoin="round"/><polygon points="365.34,347.98 353.16,340.64 353.16,321.43 365.34,328.77" fill="#7197a0" stroke="none" stroke-width="0" stroke-linejoin="round"/><polygon points="439.18,363.37 426.99,356.03 426.99,336.83 439.18,344.17" fill="#7197a0" stroke="none" stroke-width="0" stroke-linejoin="round"/><polygon points="420.72,352.25 408.53,344.91 408.53,325.70 420.72,333.05" fill="#7197a0" stroke="none" stroke-width="0" stroke-linejoin="round"/><polygon points="402.26,341.13 390.07,333.79 390.07,314.58 402.26,321.92" fill="#7197a0" stroke="none" stroke-width="0" stroke-linejoin="round"/><polygon points="383.80,330.00 371.61,322.66 371.61,303.46 383.80,310.80" fill="#7197a0" stroke="none" stroke-width="0" stroke-linejoin="round"/><polygon points="365.34,318.88 353.16,311.54 353.16,292.34 365.34,299.68" fill="#7197a0" stroke="none" stroke-width="0" stroke-linejoin="round"/><polygon points="442.32,341.11 350.02,285.50 433.12,223.74 525.42,279.35" fill="#d4d9cf" stroke="none" stroke-width="0" stroke-linejoin="round"/><polygon points="442.58,338.49 344.93,279.66 432.86,214.32 530.51,273.15" fill="#d4d9cf" stroke="none" stroke-width="0" stroke-linejoin="round"/><polygon points="441.65,316.55 362.73,269.01 433.79,216.20 512.71,263.75" fill="#d4d9cf" stroke="none" stroke-width="0" stroke-linejoin="round"/><polygon points="441.92,316.75 357.64,265.97 433.52,209.58 517.80,260.36" fill="#d4d9cf" stroke="none" stroke-width="0" stroke-linejoin="round"/><polygon points="530.51,279.17 442.58,344.51 442.58,338.49 530.51,273.15" fill="#8f9590" stroke="none" stroke-width="0" stroke-linejoin="round"/><polygon points="512.71,273.78 441.65,326.59 441.65,316.55 512.71,263.75" fill="#8f9590" stroke="none" stroke-width="0" stroke-linejoin="round"/><polygon points="510.29,273.87 500.91,280.84 500.91,274.22 510.29,267.25" fill="#527c89" stroke="none" stroke-width="0" stroke-linejoin="round"/><polygon points="496.08,284.43 486.70,291.40 486.70,284.78 496.08,277.81" fill="#527c89" stroke="none" stroke-width="0" stroke-linejoin="round"/><polygon points="481.87,294.99 472.49,301.96 472.49,295.34 481.87,288.37" fill="#527c89" stroke="none" stroke-width="0" stroke-linejoin="round"/><polygon points="467.66,305.55 458.28,312.52 458.28,305.90 467.66,298.93" fill="#527c89" stroke="none" stroke-width="0" stroke-linejoin="round"/><polygon points="453.45,316.12 444.07,323.09 444.07,316.46 453.45,309.49" fill="#527c89" stroke="none" stroke-width="0" stroke-linejoin="round"/><polygon points="442.58,344.51 344.93,285.68 344.93,279.66 442.58,338.49" fill="#b8c0b9" stroke="none" stroke-width="0" stroke-linejoin="round"/><polygon points="441.65,326.59 362.73,279.04 362.73,269.01 441.65,316.55" fill="#b8c0b9" stroke="none" stroke-width="0" stroke-linejoin="round"/><polygon points="438.97,323.26 428.55,316.99 428.55,310.37 438.97,316.64" fill="#7197a0" stroke="none" stroke-width="0" stroke-linejoin="round"/><polygon points="423.18,313.76 412.76,307.48 412.76,300.86 423.18,307.13" fill="#7197a0" stroke="none" stroke-width="0" stroke-linejoin="round"/><polygon points="407.40,304.25 396.98,297.97 396.98,291.35 407.40,297.62" fill="#7197a0" stroke="none" stroke-width="0" stroke-linejoin="round"/><polygon points="391.61,294.74 381.20,288.46 381.20,281.84 391.61,288.11" fill="#7197a0" stroke="none" stroke-width="0" stroke-linejoin="round"/><polygon points="375.83,285.23 365.41,278.95 365.41,272.33 375.83,278.60" fill="#7197a0" stroke="none" stroke-width="0" stroke-linejoin="round"/><polygon points="517.80,263.57 441.92,319.96 441.92,316.75 517.80,260.36" fill="#8f9590" stroke="none" stroke-width="0" stroke-linejoin="round"/><polygon points="441.92,319.96 357.64,269.18 357.64,265.97 441.92,316.75" fill="#b8c0b9" stroke="none" stroke-width="0" stroke-linejoin="round"/></svg>