<svg xmlns="http://www.w3.org/2000/svg" width="760" height="640" viewBox="0 0 760 640"><title>红砖山墙楼 / rotation 0</title><polygon points="307.53,334.90 307.93,335.14 158.58,446.13 158.18,445.89" fill="#d5d9e5" stroke="#929bad" stroke-width="0.65" stroke-linejoin="round"/><polygon points="334.29,351.02 334.69,351.26 185.34,462.25 184.94,462.01" fill="#d5d9e5" stroke="#929bad" stroke-width="0.65" stroke-linejoin="round"/><polygon points="361.04,367.14 361.44,367.38 212.09,478.37 211.69,478.12" fill="#d5d9e5" stroke="#929bad" stroke-width="0.65" stroke-linejoin="round"/><polygon points="305.12,336.55 599.41,513.86 599.05,514.13 304.76,336.82" fill="#d5d9e5" stroke="#929bad" stroke-width="0.65" stroke-linejoin="round"/><polygon points="387.79,383.25 388.19,383.50 238.84,494.48 238.44,494.24" fill="#d5d9e5" stroke="#929bad" stroke-width="0.65" stroke-linejoin="round"/><polygon points="281.03,354.46 575.32,531.76 574.96,532.03 280.67,354.72" fill="#d5d9e5" stroke="#929bad" stroke-width="0.65" stroke-linejoin="round"/><polygon points="414.55,399.37 414.95,399.61 265.60,510.60 265.20,510.36" fill="#d5d9e5" stroke="#929bad" stroke-width="0.65" stroke-linejoin="round"/><polygon points="190.72,443.68 186.39,446.90 186.39,418.81 190.72,415.58" fill="#969392" stroke="#929bad" stroke-width="0.65" stroke-linejoin="round"/><polygon points="186.39,446.90 181.57,444.00 181.57,415.91 186.39,418.81" fill="#969392" stroke="#929bad" stroke-width="0.65" stroke-linejoin="round"/><polygon points="256.95,372.36 551.23,549.66 550.87,549.93 256.58,372.63" fill="#d5d9e5" stroke="#929bad" stroke-width="0.65" stroke-linejoin="round"/><polygon points="185.91,412.68 190.72,415.58 186.39,418.81 181.57,415.91" fill="#aaa0a1" stroke="#929bad" stroke-width="0.65" stroke-linejoin="round"/><polygon points="441.30,415.49 441.70,415.73 292.35,526.72 291.95,526.48" fill="#d5d9e5" stroke="#929bad" stroke-width="0.65" stroke-linejoin="round"/><circle cx="177.15" cy="406.38" r="12" fill="#f3d7e7" stroke="#a6a4b4" stroke-width=".7"/><circle cx="195.15" cy="404.38" r="11" fill="#e4bed5" stroke="#a6a4b4" stroke-width=".7"/><circle cx="186.15" cy="394.38" r="13" fill="#f7e4ee" stroke="#a6a4b4" stroke-width=".7"/><circle cx="186.15" cy="411.38" r="10" fill="#f3d7e7" stroke="#a6a4b4" stroke-width=".7"/><polygon points="307.27,331.76 606.90,512.29 452.73,626.86 153.10,446.33" fill="#edeef6" stroke="#929bad" stroke-width="0.65" stroke-linejoin="round"/><polygon points="232.86,390.26 527.14,567.56 526.78,567.83 232.50,390.53" fill="#d5d9e5" stroke="#929bad" stroke-width="0.65" stroke-linejoin="round"/><polygon points="225.08,444.60 220.26,448.18 220.26,358.56 225.08,354.98" fill="#b96f76" stroke="#929bad" stroke-width="0.65" stroke-linejoin="round"/><polygon points="220.26,448.18 215.58,445.36 215.58,355.74 220.26,358.56" fill="#b96f76" stroke="#929bad" stroke-width="0.65" stroke-linejoin="round"/><polygon points="468.05,431.61 468.45,431.85 319.10,542.84 318.70,542.60" fill="#d5d9e5" stroke="#929bad" stroke-width="0.65" stroke-linejoin="round"/><polygon points="208.77,408.16 503.05,585.46 502.69,585.73 208.41,408.43" fill="#d5d9e5" stroke="#929bad" stroke-width="0.65" stroke-linejoin="round"/><polygon points="494.80,447.73 495.21,447.97 345.86,558.96 345.45,558.72" fill="#d5d9e5" stroke="#929bad" stroke-width="0.65" stroke-linejoin="round"/><polygon points="257.18,463.95 252.37,467.53 252.37,377.90 257.18,374.32" fill="#b96f76" stroke="#929bad" stroke-width="0.65" stroke-linejoin="round"/><polygon points="252.37,467.53 247.68,464.70 247.68,375.08 252.37,377.90" fill="#b96f76" stroke="#929bad" stroke-width="0.65" stroke-linejoin="round"/><polygon points="184.68,426.06 478.97,603.36 478.60,603.63 184.32,426.33" fill="#d5d9e5" stroke="#929bad" stroke-width="0.65" stroke-linejoin="round"/><polygon points="521.56,463.85 521.96,464.09 372.61,575.08 372.21,574.83" fill="#d5d9e5" stroke="#929bad" stroke-width="0.65" stroke-linejoin="round"/><polygon points="220.40,352.16 225.08,354.98 220.26,358.56 215.58,355.74" fill="#f5f5fa" stroke="#929bad" stroke-width="0.65" stroke-linejoin="round"/><polygon points="289.29,483.29 284.47,486.87 284.47,397.24 289.29,393.66" fill="#b96f76" stroke="#929bad" stroke-width="0.65" stroke-linejoin="round"/><polygon points="284.47,486.87 279.79,484.05 279.79,394.42 284.47,397.24" fill="#b96f76" stroke="#929bad" stroke-width="0.65" stroke-linejoin="round"/><polygon points="575.89,512.04 571.55,515.26 571.55,487.17 575.89,483.95" fill="#969392" stroke="#929bad" stroke-width="0.65" stroke-linejoin="round"/><polygon points="571.55,515.26 566.74,512.36 566.74,484.27 571.55,487.17" fill="#969392" stroke="#929bad" stroke-width="0.65" stroke-linejoin="round"/><polygon points="452.73,642.91 153.10,462.38 153.10,446.33 452.73,626.86" fill="#c8c7dc" stroke="#929bad" stroke-width="0.65" stroke-linejoin="round"/><polygon points="160.59,443.96 454.88,621.27 454.52,621.53 160.23,444.23" fill="#d5d9e5" stroke="#929bad" stroke-width="0.65" stroke-linejoin="round"/><polygon points="548.31,479.96 548.71,480.21 399.36,591.19 398.96,590.95" fill="#d5d9e5" stroke="#929bad" stroke-width="0.65" stroke-linejoin="round"/><polygon points="571.07,481.05 575.89,483.95 571.55,487.17 566.74,484.27" fill="#aaa0a1" stroke="#929bad" stroke-width="0.65" stroke-linejoin="round"/><polygon points="392.26,318.63 460.48,359.73 426.37,309.75" fill="#b77978" stroke="#929bad" stroke-width="0.65" stroke-linejoin="round"/><polygon points="252.50,371.50 257.18,374.32 252.37,377.90 247.68,375.08" fill="#f5f5fa" stroke="#929bad" stroke-width="0.65" stroke-linejoin="round"/><polygon points="454.13,464.29 361.38,533.21 361.38,428.87 454.13,359.95" fill="#b86e72" stroke="#929bad" stroke-width="0.65" stroke-linejoin="round"/><polygon points="448.87,463.76 428.47,478.92 428.47,461.71 448.87,446.54" fill="#7799bd" stroke="#d8e0eb" stroke-width="0.65" stroke-linejoin="round"/><polygon points="417.96,486.73 397.55,501.89 397.55,484.68 417.96,469.52" fill="#8eadd0" stroke="#d8e0eb" stroke-width="0.65" stroke-linejoin="round"/><polygon points="387.04,509.71 366.64,524.87 366.64,507.65 387.04,492.49" fill="#6f8eac" stroke="#d8e0eb" stroke-width="0.65" stroke-linejoin="round"/><polygon points="448.87,437.67 428.47,452.84 428.47,435.62 448.87,420.46" fill="#8eadd0" stroke="#d8e0eb" stroke-width="0.65" stroke-linejoin="round"/><polygon points="417.96,460.65 397.55,475.81 397.55,458.59 417.96,443.43" fill="#6f8eac" stroke="#d8e0eb" stroke-width="0.65" stroke-linejoin="round"/><polygon points="387.04,483.62 366.64,498.78 366.64,481.57 387.04,466.41" fill="#7799bd" stroke="#d8e0eb" stroke-width="0.65" stroke-linejoin="round"/><polygon points="448.87,411.59 428.47,426.75 428.47,409.54 448.87,394.37" fill="#6f8eac" stroke="#d8e0eb" stroke-width="0.65" stroke-linejoin="round"/><polygon points="417.96,434.56 397.55,449.73 397.55,432.51 417.96,417.35" fill="#7799bd" stroke="#d8e0eb" stroke-width="0.65" stroke-linejoin="round"/><polygon points="387.04,457.54 366.64,472.70 366.64,455.48 387.04,440.32" fill="#8eadd0" stroke="#d8e0eb" stroke-width="0.65" stroke-linejoin="round"/><polygon points="448.87,385.51 428.47,400.67 428.47,383.45 448.87,368.29" fill="#7799bd" stroke="#d8e0eb" stroke-width="0.65" stroke-linejoin="round"/><polygon points="417.96,408.48 397.55,423.64 397.55,406.43 417.96,391.26" fill="#8eadd0" stroke="#d8e0eb" stroke-width="0.65" stroke-linejoin="round"/><polygon points="387.04,431.45 366.64,446.62 366.64,429.40 387.04,414.24" fill="#6f8eac" stroke="#d8e0eb" stroke-width="0.65" stroke-linejoin="round"/><polygon points="462.38,585.95 210.90,434.44 210.90,356.86 462.38,508.37" fill="#c58b88" stroke="#929bad" stroke-width="0.65" stroke-linejoin="round"/><polygon points="458.82,579.41 444.99,571.08 444.99,554.01 458.82,562.34" fill="#7799bd" stroke="#d8e0eb" stroke-width="0.65" stroke-linejoin="round"/><polygon points="437.86,566.78 424.03,558.45 424.03,541.38 437.86,549.72" fill="#8eadd0" stroke="#d8e0eb" stroke-width="0.65" stroke-linejoin="round"/><polygon points="416.90,554.16 403.07,545.82 403.07,528.76 416.90,537.09" fill="#6f8eac" stroke="#d8e0eb" stroke-width="0.65" stroke-linejoin="round"/><polygon points="395.95,541.53 382.12,533.20 382.12,516.13 395.95,524.46" fill="#7799bd" stroke="#d8e0eb" stroke-width="0.65" stroke-linejoin="round"/><polygon points="374.99,528.91 361.16,520.57 361.16,503.50 374.99,511.84" fill="#8eadd0" stroke="#d8e0eb" stroke-width="0.65" stroke-linejoin="round"/><polygon points="354.03,516.28 340.20,507.95 340.20,490.88 354.03,499.21" fill="#6f8eac" stroke="#d8e0eb" stroke-width="0.65" stroke-linejoin="round"/><polygon points="333.08,503.65 319.25,495.32 319.25,478.25 333.08,486.59" fill="#7799bd" stroke="#d8e0eb" stroke-width="0.65" stroke-linejoin="round"/><polygon points="312.12,491.03 298.29,482.69 298.29,465.63 312.12,473.96" fill="#8eadd0" stroke="#d8e0eb" stroke-width="0.65" stroke-linejoin="round"/><polygon points="291.16,478.40 277.33,470.07 277.33,453.00 291.16,461.33" fill="#6f8eac" stroke="#d8e0eb" stroke-width="0.65" stroke-linejoin="round"/><polygon points="270.21,465.78 256.38,457.44 256.38,440.37 270.21,448.71" fill="#7799bd" stroke="#d8e0eb" stroke-width="0.65" stroke-linejoin="round"/><polygon points="249.25,453.15 235.42,444.82 235.42,427.75 249.25,436.08" fill="#8eadd0" stroke="#d8e0eb" stroke-width="0.65" stroke-linejoin="round"/><polygon points="228.29,440.52 214.46,432.19 214.46,415.12 228.29,423.45" fill="#6f8eac" stroke="#d8e0eb" stroke-width="0.65" stroke-linejoin="round"/><polygon points="458.82,553.55 444.99,545.22 444.99,528.15 458.82,536.48" fill="#8eadd0" stroke="#d8e0eb" stroke-width="0.65" stroke-linejoin="round"/><polygon points="437.86,540.92 424.03,532.59 424.03,515.52 437.86,523.85" fill="#6f8eac" stroke="#d8e0eb" stroke-width="0.65" stroke-linejoin="round"/><polygon points="416.90,528.30 403.07,519.96 403.07,502.90 416.90,511.23" fill="#7799bd" stroke="#d8e0eb" stroke-width="0.65" stroke-linejoin="round"/><polygon points="395.95,515.67 382.12,507.34 382.12,490.27 395.95,498.60" fill="#8eadd0" stroke="#d8e0eb" stroke-width="0.65" stroke-linejoin="round"/><polygon points="374.99,503.04 361.16,494.71 361.16,477.64 374.99,485.98" fill="#6f8eac" stroke="#d8e0eb" stroke-width="0.65" stroke-linejoin="round"/><polygon points="354.03,490.42 340.20,482.09 340.20,465.02 354.03,473.35" fill="#7799bd" stroke="#d8e0eb" stroke-width="0.65" stroke-linejoin="round"/><polygon points="333.08,477.79 319.25,469.46 319.25,452.39 333.08,460.72" fill="#8eadd0" stroke="#d8e0eb" stroke-width="0.65" stroke-linejoin="round"/><polygon points="312.12,465.17 298.29,456.83 298.29,439.76 312.12,448.10" fill="#6f8eac" stroke="#d8e0eb" stroke-width="0.65" stroke-linejoin="round"/><polygon points="291.16,452.54 277.33,444.21 277.33,427.14 291.16,435.47" fill="#7799bd" stroke="#d8e0eb" stroke-width="0.65" stroke-linejoin="round"/><polygon points="270.21,439.91 256.38,431.58 256.38,414.51 270.21,422.85" fill="#8eadd0" stroke="#d8e0eb" stroke-width="0.65" stroke-linejoin="round"/><polygon points="249.25,427.29 235.42,418.95 235.42,401.89 249.25,410.22" fill="#6f8eac" stroke="#d8e0eb" stroke-width="0.65" stroke-linejoin="round"/><polygon points="228.29,414.66 214.46,406.33 214.46,389.26 228.29,397.59" fill="#7799bd" stroke="#d8e0eb" stroke-width="0.65" stroke-linejoin="round"/><polygon points="458.82,527.69 444.99,519.35 444.99,502.29 458.82,510.62" fill="#6f8eac" stroke="#d8e0eb" stroke-width="0.65" stroke-linejoin="round"/><polygon points="437.86,515.06 424.03,506.73 424.03,489.66 437.86,497.99" fill="#7799bd" stroke="#d8e0eb" stroke-width="0.65" stroke-linejoin="round"/><polygon points="416.90,502.44 403.07,494.10 403.07,477.03 416.90,485.37" fill="#8eadd0" stroke="#d8e0eb" stroke-width="0.65" stroke-linejoin="round"/><polygon points="395.95,489.81 382.12,481.48 382.12,464.41 395.95,472.74" fill="#6f8eac" stroke="#d8e0eb" stroke-width="0.65" stroke-linejoin="round"/><polygon points="374.99,477.18 361.16,468.85 361.16,451.78 374.99,460.11" fill="#7799bd" stroke="#d8e0eb" stroke-width="0.65" stroke-linejoin="round"/><polygon points="354.03,464.56 340.20,456.22 340.20,439.16 354.03,447.49" fill="#8eadd0" stroke="#d8e0eb" stroke-width="0.65" stroke-linejoin="round"/><polygon points="333.08,451.93 319.25,443.60 319.25,426.53 333.08,434.86" fill="#6f8eac" stroke="#d8e0eb" stroke-width="0.65" stroke-linejoin="round"/><polygon points="312.12,439.30 298.29,430.97 298.29,413.90 312.12,422.24" fill="#7799bd" stroke="#d8e0eb" stroke-width="0.65" stroke-linejoin="round"/><polygon points="291.16,426.68 277.33,418.35 277.33,401.28 291.16,409.61" fill="#8eadd0" stroke="#d8e0eb" stroke-width="0.65" stroke-linejoin="round"/><polygon points="270.21,414.05 256.38,405.72 256.38,388.65 270.21,396.98" fill="#6f8eac" stroke="#d8e0eb" stroke-width="0.65" stroke-linejoin="round"/><polygon points="249.25,401.43 235.42,393.09 235.42,376.02 249.25,384.36" fill="#7799bd" stroke="#d8e0eb" stroke-width="0.65" stroke-linejoin="round"/><polygon points="228.29,388.80 214.46,380.47 214.46,363.40 228.29,371.73" fill="#8eadd0" stroke="#d8e0eb" stroke-width="0.65" stroke-linejoin="round"/><polygon points="295.21,294.20 546.69,445.71 462.38,508.37 210.90,356.86" fill="#f5f5fa" stroke="#929bad" stroke-width="0.65" stroke-linejoin="round"/><circle cx="562.31" cy="474.75" r="12" fill="#f3d7e7" stroke="#a6a4b4" stroke-width=".7"/><circle cx="580.31" cy="472.75" r="11" fill="#e4bed5" stroke="#a6a4b4" stroke-width=".7"/><circle cx="571.31" cy="462.75" r="13" fill="#f7e4ee" stroke="#a6a4b4" stroke-width=".7"/><circle cx="571.31" cy="479.75" r="10" fill="#f3d7e7" stroke="#a6a4b4" stroke-width=".7"/><polygon points="294.81,285.75 554.32,442.10 462.78,510.13 203.27,353.78" fill="#c9cbd9" stroke="#929bad" stroke-width="0.65" stroke-linejoin="round"/><polygon points="575.06,496.08 575.47,496.32 426.12,607.31 425.71,607.07" fill="#d5d9e5" stroke="#929bad" stroke-width="0.65" stroke-linejoin="round"/><polygon points="284.60,390.84 289.29,393.66 284.47,397.24 279.79,394.42" fill="#f5f5fa" stroke="#929bad" stroke-width="0.65" stroke-linejoin="round"/><polygon points="361.38,533.21 299.85,496.14 299.85,391.80 361.38,428.87" fill="#b86e72" stroke="#929bad" stroke-width="0.65" stroke-linejoin="round"/><polygon points="357.90,526.67 344.36,518.52 344.36,501.30 357.90,509.46" fill="#7799bd" stroke="#d8e0eb" stroke-width="0.65" stroke-linejoin="round"/><polygon points="337.39,514.32 323.85,506.16 323.85,488.94 337.39,497.10" fill="#8eadd0" stroke="#d8e0eb" stroke-width="0.65" stroke-linejoin="round"/><polygon points="316.88,501.96 303.34,493.80 303.34,476.59 316.88,484.74" fill="#6f8eac" stroke="#d8e0eb" stroke-width="0.65" stroke-linejoin="round"/><polygon points="357.90,500.59 344.36,492.43 344.36,475.22 357.90,483.37" fill="#8eadd0" stroke="#d8e0eb" stroke-width="0.65" stroke-linejoin="round"/><polygon points="337.39,488.23 323.85,480.08 323.85,462.86 337.39,471.02" fill="#6f8eac" stroke="#d8e0eb" stroke-width="0.65" stroke-linejoin="round"/><polygon points="316.88,475.87 303.34,467.72 303.34,450.50 316.88,458.66" fill="#7799bd" stroke="#d8e0eb" stroke-width="0.65" stroke-linejoin="round"/><polygon points="357.90,474.50 344.36,466.35 344.36,449.13 357.90,457.29" fill="#6f8eac" stroke="#d8e0eb" stroke-width="0.65" stroke-linejoin="round"/><polygon points="337.39,462.15 323.85,453.99 323.85,436.78 337.39,444.93" fill="#7799bd" stroke="#d8e0eb" stroke-width="0.65" stroke-linejoin="round"/><polygon points="316.88,449.79 303.34,441.63 303.34,424.42 316.88,432.57" fill="#8eadd0" stroke="#d8e0eb" stroke-width="0.65" stroke-linejoin="round"/><polygon points="357.90,448.42 344.36,440.26 344.36,423.05 357.90,431.20" fill="#7799bd" stroke="#d8e0eb" stroke-width="0.65" stroke-linejoin="round"/><polygon points="337.39,436.06 323.85,427.91 323.85,410.69 337.39,418.85" fill="#8eadd0" stroke="#d8e0eb" stroke-width="0.65" stroke-linejoin="round"/><polygon points="316.88,423.70 303.34,415.55 303.34,398.33 316.88,406.49" fill="#6f8eac" stroke="#d8e0eb" stroke-width="0.65" stroke-linejoin="round"/><polygon points="606.90,528.34 452.73,642.91 452.73,626.86 606.90,512.29" fill="#c8c7dc" stroke="#929bad" stroke-width="0.65" stroke-linejoin="round"/><polygon points="392.59,322.88 454.13,359.95 361.38,428.87 299.85,391.80" fill="#f5f5fa" stroke="#929bad" stroke-width="0.65" stroke-linejoin="round"/><polygon points="601.82,512.20 602.22,512.44 452.87,623.43 452.47,623.19" fill="#d5d9e5" stroke="#929bad" stroke-width="0.65" stroke-linejoin="round"/><polygon points="392.26,318.63 426.37,309.75 327.61,383.14 293.50,392.02" fill="#dee2ec" stroke="#929bad" stroke-width="0.65" stroke-linejoin="round"/><polygon points="462.78,513.47 203.27,357.12 203.27,353.78 462.78,510.13" fill="#e1e6ef" stroke="#929bad" stroke-width="0.65" stroke-linejoin="round"/><polygon points="385.60,541.31 380.78,544.89 380.78,455.27 385.60,451.69" fill="#b96f76" stroke="#929bad" stroke-width="0.65" stroke-linejoin="round"/><polygon points="380.78,544.89 376.10,542.07 376.10,452.45 380.78,455.27" fill="#b96f76" stroke="#929bad" stroke-width="0.65" stroke-linejoin="round"/><polygon points="546.69,523.30 462.38,585.95 462.38,508.37 546.69,445.71" fill="#c58b88" stroke="#929bad" stroke-width="0.65" stroke-linejoin="round"/><polygon points="545.50,519.79 540.86,523.24 540.86,506.17 545.50,502.72" fill="#7799bd" stroke="#d8e0eb" stroke-width="0.65" stroke-linejoin="round"/><polygon points="538.47,525.01 533.83,528.46 533.83,511.39 538.47,507.94" fill="#8eadd0" stroke="#d8e0eb" stroke-width="0.65" stroke-linejoin="round"/><polygon points="531.44,530.23 526.81,533.68 526.81,516.61 531.44,513.16" fill="#6f8eac" stroke="#d8e0eb" stroke-width="0.65" stroke-linejoin="round"/><polygon points="524.42,535.45 519.78,538.90 519.78,521.83 524.42,518.38" fill="#7799bd" stroke="#d8e0eb" stroke-width="0.65" stroke-linejoin="round"/><polygon points="517.39,540.67 512.76,544.12 512.76,527.05 517.39,523.61" fill="#8eadd0" stroke="#d8e0eb" stroke-width="0.65" stroke-linejoin="round"/><polygon points="510.37,545.90 505.73,549.34 505.73,532.27 510.37,528.83" fill="#6f8eac" stroke="#d8e0eb" stroke-width="0.65" stroke-linejoin="round"/><polygon points="503.34,551.12 498.70,554.56 498.70,537.49 503.34,534.05" fill="#7799bd" stroke="#d8e0eb" stroke-width="0.65" stroke-linejoin="round"/><polygon points="496.32,556.34 491.68,559.78 491.68,542.72 496.32,539.27" fill="#8eadd0" stroke="#d8e0eb" stroke-width="0.65" stroke-linejoin="round"/><polygon points="489.29,561.56 484.65,565.01 484.65,547.94 489.29,544.49" fill="#6f8eac" stroke="#d8e0eb" stroke-width="0.65" stroke-linejoin="round"/><polygon points="482.26,566.78 477.63,570.23 477.63,553.16 482.26,549.71" fill="#7799bd" stroke="#d8e0eb" stroke-width="0.65" stroke-linejoin="round"/><polygon points="475.24,572.00 470.60,575.45 470.60,558.38 475.24,554.93" fill="#8eadd0" stroke="#d8e0eb" stroke-width="0.65" stroke-linejoin="round"/><polygon points="468.21,577.22 463.57,580.67 463.57,563.60 468.21,560.15" fill="#6f8eac" stroke="#d8e0eb" stroke-width="0.65" stroke-linejoin="round"/><polygon points="545.50,493.93 540.86,497.37 540.86,480.31 545.50,476.86" fill="#8eadd0" stroke="#d8e0eb" stroke-width="0.65" stroke-linejoin="round"/><polygon points="538.47,499.15 533.83,502.60 533.83,485.53 538.47,482.08" fill="#6f8eac" stroke="#d8e0eb" stroke-width="0.65" stroke-linejoin="round"/><polygon points="531.44,504.37 526.81,507.82 526.81,490.75 531.44,487.30" fill="#7799bd" stroke="#d8e0eb" stroke-width="0.65" stroke-linejoin="round"/><polygon points="524.42,509.59 519.78,513.04 519.78,495.97 524.42,492.52" fill="#8eadd0" stroke="#d8e0eb" stroke-width="0.65" stroke-linejoin="round"/><polygon points="517.39,514.81 512.76,518.26 512.76,501.19 517.39,497.74" fill="#6f8eac" stroke="#d8e0eb" stroke-width="0.65" stroke-linejoin="round"/><polygon points="510.37,520.03 505.73,523.48 505.73,506.41 510.37,502.97" fill="#7799bd" stroke="#d8e0eb" stroke-width="0.65" stroke-linejoin="round"/><polygon points="503.34,525.26 498.70,528.70 498.70,511.63 503.34,508.19" fill="#8eadd0" stroke="#d8e0eb" stroke-width="0.65" stroke-linejoin="round"/><polygon points="496.32,530.48 491.68,533.92 491.68,516.85 496.32,513.41" fill="#6f8eac" stroke="#d8e0eb" stroke-width="0.65" stroke-linejoin="round"/><polygon points="489.29,535.70 484.65,539.14 484.65,522.08 489.29,518.63" fill="#7799bd" stroke="#d8e0eb" stroke-width="0.65" stroke-linejoin="round"/><polygon points="482.26,540.92 477.63,544.37 477.63,527.30 482.26,523.85" fill="#8eadd0" stroke="#d8e0eb" stroke-width="0.65" stroke-linejoin="round"/><polygon points="475.24,546.14 470.60,549.59 470.60,532.52 475.24,529.07" fill="#6f8eac" stroke="#d8e0eb" stroke-width="0.65" stroke-linejoin="round"/><polygon points="468.21,551.36 463.57,554.81 463.57,537.74 468.21,534.29" fill="#7799bd" stroke="#d8e0eb" stroke-width="0.65" stroke-linejoin="round"/><polygon points="545.50,468.07 540.86,471.51 540.86,454.44 545.50,451.00" fill="#6f8eac" stroke="#d8e0eb" stroke-width="0.65" stroke-linejoin="round"/><polygon points="538.47,473.29 533.83,476.73 533.83,459.67 538.47,456.22" fill="#7799bd" stroke="#d8e0eb" stroke-width="0.65" stroke-linejoin="round"/><polygon points="531.44,478.51 526.81,481.96 526.81,464.89 531.44,461.44" fill="#8eadd0" stroke="#d8e0eb" stroke-width="0.65" stroke-linejoin="round"/><polygon points="524.42,483.73 519.78,487.18 519.78,470.11 524.42,466.66" fill="#6f8eac" stroke="#d8e0eb" stroke-width="0.65" stroke-linejoin="round"/><polygon points="517.39,488.95 512.76,492.40 512.76,475.33 517.39,471.88" fill="#7799bd" stroke="#d8e0eb" stroke-width="0.65" stroke-linejoin="round"/><polygon points="510.37,494.17 505.73,497.62 505.73,480.55 510.37,477.10" fill="#8eadd0" stroke="#d8e0eb" stroke-width="0.65" stroke-linejoin="round"/><polygon points="503.34,499.39 498.70,502.84 498.70,485.77 503.34,482.33" fill="#6f8eac" stroke="#d8e0eb" stroke-width="0.65" stroke-linejoin="round"/><polygon points="496.32,504.62 491.68,508.06 491.68,490.99 496.32,487.55" fill="#7799bd" stroke="#d8e0eb" stroke-width="0.65" stroke-linejoin="round"/><polygon points="489.29,509.84 484.65,513.28 484.65,496.21 489.29,492.77" fill="#8eadd0" stroke="#d8e0eb" stroke-width="0.65" stroke-linejoin="round"/><polygon points="482.26,515.06 477.63,518.50 477.63,501.44 482.26,497.99" fill="#6f8eac" stroke="#d8e0eb" stroke-width="0.65" stroke-linejoin="round"/><polygon points="475.24,520.28 470.60,523.73 470.60,506.66 475.24,503.21" fill="#7799bd" stroke="#d8e0eb" stroke-width="0.65" stroke-linejoin="round"/><polygon points="468.21,525.50 463.57,528.95 463.57,511.88 468.21,508.43" fill="#8eadd0" stroke="#d8e0eb" stroke-width="0.65" stroke-linejoin="round"/><polygon points="426.37,309.75 460.48,359.73 361.72,433.12 327.61,383.14" fill="#ececf5" stroke="#929bad" stroke-width="0.65" stroke-linejoin="round"/><polygon points="417.70,560.66 412.88,564.24 412.88,474.61 417.70,471.03" fill="#b96f76" stroke="#929bad" stroke-width="0.65" stroke-linejoin="round"/><polygon points="412.88,564.24 408.20,561.42 408.20,471.79 412.88,474.61" fill="#b96f76" stroke="#929bad" stroke-width="0.65" stroke-linejoin="round"/><polygon points="341.36,413.28 341.15,410.98 340.51,408.52 339.49,405.98 338.11,403.47 336.43,401.07 334.51,398.89 332.42,397.01 330.26,395.49 328.09,394.40 326.01,393.77 324.09,393.64 322.41,394.01 321.03,394.86 320.00,396.16 319.37,397.86 319.15,399.90 319.37,402.20 320.00,404.66 321.03,407.20 322.41,409.71 324.09,412.11 326.01,414.29 328.09,416.17 330.26,417.69 332.42,418.78 334.51,419.41 336.43,419.54 338.11,419.17 339.49,418.32 340.51,417.02 341.15,415.32" fill="#e9edf7" stroke="#929bad" stroke-width="0.65" stroke-linejoin="round"/><polygon points="293.50,392.02 327.61,383.14 361.72,433.12" fill="#b77978" stroke="#929bad" stroke-width="0.65" stroke-linejoin="round"/><polygon points="454.11,600.74 449.77,603.96 449.77,575.87 454.11,572.65" fill="#969392" stroke="#929bad" stroke-width="0.65" stroke-linejoin="round"/><polygon points="449.77,603.96 444.96,601.06 444.96,572.97 449.77,575.87" fill="#969392" stroke="#929bad" stroke-width="0.65" stroke-linejoin="round"/><polygon points="380.92,448.87 385.60,451.69 380.78,455.27 376.10,452.45" fill="#f5f5fa" stroke="#929bad" stroke-width="0.65" stroke-linejoin="round"/><polygon points="449.81,580.00 444.99,583.58 444.99,493.96 449.81,490.37" fill="#b96f76" stroke="#929bad" stroke-width="0.65" stroke-linejoin="round"/><polygon points="444.99,583.58 440.31,580.76 440.31,491.13 444.99,493.96" fill="#b96f76" stroke="#929bad" stroke-width="0.65" stroke-linejoin="round"/><polygon points="554.32,445.45 462.78,513.47 462.78,510.13 554.32,442.10" fill="#e1e6ef" stroke="#929bad" stroke-width="0.65" stroke-linejoin="round"/><polygon points="449.29,569.75 454.11,572.65 449.77,575.87 444.96,572.97" fill="#aaa0a1" stroke="#929bad" stroke-width="0.65" stroke-linejoin="round"/><circle cx="440.53" cy="563.45" r="12" fill="#f3d7e7" stroke="#a6a4b4" stroke-width=".7"/><circle cx="458.53" cy="561.45" r="11" fill="#e4bed5" stroke="#a6a4b4" stroke-width=".7"/><circle cx="449.53" cy="551.45" r="13" fill="#f7e4ee" stroke="#a6a4b4" stroke-width=".7"/><circle cx="449.53" cy="568.45" r="10" fill="#f3d7e7" stroke="#a6a4b4" stroke-width=".7"/><polygon points="413.02,468.21 417.70,471.03 412.88,474.61 408.20,471.79" fill="#f5f5fa" stroke="#929bad" stroke-width="0.65" stroke-linejoin="round"/><polygon points="445.12,487.55 449.81,490.37 444.99,493.96 440.31,491.13" fill="#f5f5fa" stroke="#929bad" stroke-width="0.65" stroke-linejoin="round"/></svg>