<svg xmlns="http://www.w3.org/2000/svg" width="760" height="640" viewBox="0 0 760 640"><title>红砖山墙楼 / rotation 270</title><polygon points="435.73,349.80 431.39,353.02 431.39,324.93 435.73,321.71" fill="#969392" stroke="#929bad" stroke-width="0.65" stroke-linejoin="round"/><polygon points="431.39,353.02 426.58,350.12 426.58,322.03 431.39,324.93" fill="#969392" stroke="#929bad" stroke-width="0.65" stroke-linejoin="round"/><polygon points="426.58,322.03 430.91,318.81 435.73,321.71 431.39,324.93" fill="#aaa0a1" stroke="#929bad" stroke-width="0.65" stroke-linejoin="round"/><polygon points="429.55,330.62 429.91,330.35 595.78,430.29 595.42,430.55" fill="#d5d9e5" stroke="#929bad" stroke-width="0.65" stroke-linejoin="round"/><circle cx="422.15" cy="312.51" r="12" fill="#f3d7e7" stroke="#a6a4b4" stroke-width=".7"/><circle cx="440.15" cy="310.51" r="11" fill="#e4bed5" stroke="#a6a4b4" stroke-width=".7"/><circle cx="431.15" cy="300.51" r="13" fill="#f7e4ee" stroke="#a6a4b4" stroke-width=".7"/><circle cx="431.15" cy="317.51" r="10" fill="#f3d7e7" stroke="#a6a4b4" stroke-width=".7"/><polygon points="405.46,348.52 405.83,348.25 571.70,448.19 571.33,448.46" fill="#d5d9e5" stroke="#929bad" stroke-width="0.65" stroke-linejoin="round"/><polygon points="381.38,366.42 381.74,366.15 547.61,466.09 547.25,466.36" fill="#d5d9e5" stroke="#929bad" stroke-width="0.65" stroke-linejoin="round"/><polygon points="167.25,529.01 432.23,332.10 432.63,332.34 167.65,529.25" fill="#d5d9e5" stroke="#929bad" stroke-width="0.65" stroke-linejoin="round"/><polygon points="357.29,384.32 357.65,384.05 523.52,483.99 523.16,484.26" fill="#d5d9e5" stroke="#929bad" stroke-width="0.65" stroke-linejoin="round"/><polygon points="568.29,431.29 563.95,434.51 563.95,406.42 568.29,403.20" fill="#969392" stroke="#929bad" stroke-width="0.65" stroke-linejoin="round"/><polygon points="563.95,434.51 559.14,431.61 559.14,403.52 563.95,406.42" fill="#969392" stroke="#929bad" stroke-width="0.65" stroke-linejoin="round"/><polygon points="194.01,545.13 458.98,348.22 459.38,348.46 194.41,545.37" fill="#d5d9e5" stroke="#929bad" stroke-width="0.65" stroke-linejoin="round"/><polygon points="333.20,402.22 333.56,401.96 499.43,501.89 499.07,502.16" fill="#d5d9e5" stroke="#929bad" stroke-width="0.65" stroke-linejoin="round"/><polygon points="559.14,403.52 563.47,400.30 568.29,403.20 563.95,406.42" fill="#aaa0a1" stroke="#929bad" stroke-width="0.65" stroke-linejoin="round"/><polygon points="220.76,561.25 485.73,364.33 486.14,364.58 221.16,561.49" fill="#d5d9e5" stroke="#929bad" stroke-width="0.65" stroke-linejoin="round"/><circle cx="554.71" cy="393.99" r="12" fill="#f3d7e7" stroke="#a6a4b4" stroke-width=".7"/><circle cx="572.71" cy="391.99" r="11" fill="#e4bed5" stroke="#a6a4b4" stroke-width=".7"/><circle cx="563.71" cy="381.99" r="13" fill="#f7e4ee" stroke="#a6a4b4" stroke-width=".7"/><circle cx="563.71" cy="398.99" r="10" fill="#f3d7e7" stroke="#a6a4b4" stroke-width=".7"/><polygon points="309.11,420.13 309.47,419.86 475.34,519.79 474.98,520.06" fill="#d5d9e5" stroke="#929bad" stroke-width="0.65" stroke-linejoin="round"/><polygon points="533.61,437.62 528.26,434.40 528.26,344.77 533.61,348.00" fill="#b96f76" stroke="#929bad" stroke-width="0.65" stroke-linejoin="round"/><polygon points="537.82,434.49 533.61,437.62 533.61,348.00 537.82,344.87" fill="#b96f76" stroke="#929bad" stroke-width="0.65" stroke-linejoin="round"/><polygon points="159.49,527.98 429.29,327.48 600.51,430.64 330.71,631.14" fill="#edeef6" stroke="#929bad" stroke-width="0.65" stroke-linejoin="round"/><polygon points="247.51,577.37 512.49,380.45 512.89,380.69 247.91,577.61" fill="#d5d9e5" stroke="#929bad" stroke-width="0.65" stroke-linejoin="round"/><polygon points="285.02,438.03 285.38,437.76 451.25,537.69 450.89,537.96" fill="#d5d9e5" stroke="#929bad" stroke-width="0.65" stroke-linejoin="round"/><polygon points="274.27,593.49 539.24,396.57 539.64,396.81 274.67,593.73" fill="#d5d9e5" stroke="#929bad" stroke-width="0.65" stroke-linejoin="round"/><polygon points="504.70,459.10 499.35,455.88 499.35,366.26 504.70,369.48" fill="#b96f76" stroke="#929bad" stroke-width="0.65" stroke-linejoin="round"/><polygon points="508.92,455.97 504.70,459.10 504.70,369.48 508.92,366.35" fill="#b96f76" stroke="#929bad" stroke-width="0.65" stroke-linejoin="round"/><polygon points="260.93,455.93 261.29,455.66 427.16,555.60 426.80,555.86" fill="#d5d9e5" stroke="#929bad" stroke-width="0.65" stroke-linejoin="round"/><polygon points="528.26,344.77 532.47,341.64 537.82,344.87 533.61,348.00" fill="#f5f5fa" stroke="#929bad" stroke-width="0.65" stroke-linejoin="round"/><polygon points="301.02,609.61 565.99,412.69 566.40,412.93 301.42,609.85" fill="#d5d9e5" stroke="#929bad" stroke-width="0.65" stroke-linejoin="round"/><polygon points="475.79,480.58 470.44,477.36 470.44,387.74 475.79,390.96" fill="#b96f76" stroke="#929bad" stroke-width="0.65" stroke-linejoin="round"/><polygon points="480.01,477.45 475.79,480.58 475.79,390.96 480.01,387.83" fill="#b96f76" stroke="#929bad" stroke-width="0.65" stroke-linejoin="round"/><polygon points="236.84,473.83 237.20,473.56 403.07,573.50 402.71,573.76" fill="#d5d9e5" stroke="#929bad" stroke-width="0.65" stroke-linejoin="round"/><polygon points="600.51,446.69 330.71,647.19 330.71,631.14 600.51,430.64" fill="#c8c7dc" stroke="#929bad" stroke-width="0.65" stroke-linejoin="round"/><polygon points="327.77,625.72 592.75,428.81 593.15,429.05 328.17,625.97" fill="#d5d9e5" stroke="#929bad" stroke-width="0.65" stroke-linejoin="round"/><polygon points="499.35,366.26 503.57,363.12 508.92,366.35 504.70,369.48" fill="#f5f5fa" stroke="#929bad" stroke-width="0.65" stroke-linejoin="round"/><polygon points="541.37,422.85 314.94,591.12 314.94,513.54 541.37,345.27" fill="#c58b88" stroke="#929bad" stroke-width="0.65" stroke-linejoin="round"/><polygon points="538.16,420.84 525.71,430.09 525.71,413.02 538.16,403.77" fill="#7799bd" stroke="#d8e0eb" stroke-width="0.65" stroke-linejoin="round"/><polygon points="519.30,434.86 506.84,444.12 506.84,427.05 519.30,417.79" fill="#8eadd0" stroke="#d8e0eb" stroke-width="0.65" stroke-linejoin="round"/><polygon points="500.43,448.88 487.97,458.14 487.97,441.07 500.43,431.82" fill="#6f8eac" stroke="#d8e0eb" stroke-width="0.65" stroke-linejoin="round"/><polygon points="481.56,462.91 469.10,472.16 469.10,455.09 481.56,445.84" fill="#7799bd" stroke="#d8e0eb" stroke-width="0.65" stroke-linejoin="round"/><polygon points="462.69,476.93 450.23,486.18 450.23,469.12 462.69,459.86" fill="#8eadd0" stroke="#d8e0eb" stroke-width="0.65" stroke-linejoin="round"/><polygon points="443.82,490.95 431.36,500.21 431.36,483.14 443.82,473.88" fill="#6f8eac" stroke="#d8e0eb" stroke-width="0.65" stroke-linejoin="round"/><polygon points="424.95,504.97 412.49,514.23 412.49,497.16 424.95,487.91" fill="#7799bd" stroke="#d8e0eb" stroke-width="0.65" stroke-linejoin="round"/><polygon points="406.08,519.00 393.62,528.25 393.62,511.18 406.08,501.93" fill="#8eadd0" stroke="#d8e0eb" stroke-width="0.65" stroke-linejoin="round"/><polygon points="387.21,533.02 374.76,542.28 374.76,525.21 387.21,515.95" fill="#6f8eac" stroke="#d8e0eb" stroke-width="0.65" stroke-linejoin="round"/><polygon points="368.34,547.04 355.89,556.30 355.89,539.23 368.34,529.97" fill="#7799bd" stroke="#d8e0eb" stroke-width="0.65" stroke-linejoin="round"/><polygon points="349.47,561.07 337.02,570.32 337.02,553.25 349.47,544.00" fill="#8eadd0" stroke="#d8e0eb" stroke-width="0.65" stroke-linejoin="round"/><polygon points="330.60,575.09 318.15,584.34 318.15,567.28 330.60,558.02" fill="#6f8eac" stroke="#d8e0eb" stroke-width="0.65" stroke-linejoin="round"/><polygon points="538.16,394.98 525.71,404.23 525.71,387.16 538.16,377.91" fill="#8eadd0" stroke="#d8e0eb" stroke-width="0.65" stroke-linejoin="round"/><polygon points="519.30,409.00 506.84,418.25 506.84,401.19 519.30,391.93" fill="#6f8eac" stroke="#d8e0eb" stroke-width="0.65" stroke-linejoin="round"/><polygon points="500.43,423.02 487.97,432.28 487.97,415.21 500.43,405.95" fill="#7799bd" stroke="#d8e0eb" stroke-width="0.65" stroke-linejoin="round"/><polygon points="481.56,437.05 469.10,446.30 469.10,429.23 481.56,419.98" fill="#8eadd0" stroke="#d8e0eb" stroke-width="0.65" stroke-linejoin="round"/><polygon points="462.69,451.07 450.23,460.32 450.23,443.25 462.69,434.00" fill="#6f8eac" stroke="#d8e0eb" stroke-width="0.65" stroke-linejoin="round"/><polygon points="443.82,465.09 431.36,474.35 431.36,457.28 443.82,448.02" fill="#7799bd" stroke="#d8e0eb" stroke-width="0.65" stroke-linejoin="round"/><polygon points="424.95,479.11 412.49,488.37 412.49,471.30 424.95,462.04" fill="#8eadd0" stroke="#d8e0eb" stroke-width="0.65" stroke-linejoin="round"/><polygon points="406.08,493.14 393.62,502.39 393.62,485.32 406.08,476.07" fill="#6f8eac" stroke="#d8e0eb" stroke-width="0.65" stroke-linejoin="round"/><polygon points="387.21,507.16 374.76,516.41 374.76,499.35 387.21,490.09" fill="#7799bd" stroke="#d8e0eb" stroke-width="0.65" stroke-linejoin="round"/><polygon points="368.34,521.18 355.89,530.44 355.89,513.37 368.34,504.11" fill="#8eadd0" stroke="#d8e0eb" stroke-width="0.65" stroke-linejoin="round"/><polygon points="349.47,535.20 337.02,544.46 337.02,527.39 349.47,518.14" fill="#6f8eac" stroke="#d8e0eb" stroke-width="0.65" stroke-linejoin="round"/><polygon points="330.60,549.23 318.15,558.48 318.15,541.41 330.60,532.16" fill="#7799bd" stroke="#d8e0eb" stroke-width="0.65" stroke-linejoin="round"/><polygon points="538.16,369.12 525.71,378.37 525.71,361.30 538.16,352.05" fill="#6f8eac" stroke="#d8e0eb" stroke-width="0.65" stroke-linejoin="round"/><polygon points="519.30,383.14 506.84,392.39 506.84,375.32 519.30,366.07" fill="#7799bd" stroke="#d8e0eb" stroke-width="0.65" stroke-linejoin="round"/><polygon points="500.43,397.16 487.97,406.42 487.97,389.35 500.43,380.09" fill="#8eadd0" stroke="#d8e0eb" stroke-width="0.65" stroke-linejoin="round"/><polygon points="481.56,411.18 469.10,420.44 469.10,403.37 481.56,394.12" fill="#6f8eac" stroke="#d8e0eb" stroke-width="0.65" stroke-linejoin="round"/><polygon points="462.69,425.21 450.23,434.46 450.23,417.39 462.69,408.14" fill="#7799bd" stroke="#d8e0eb" stroke-width="0.65" stroke-linejoin="round"/><polygon points="443.82,439.23 431.36,448.48 431.36,431.42 443.82,422.16" fill="#8eadd0" stroke="#d8e0eb" stroke-width="0.65" stroke-linejoin="round"/><polygon points="424.95,453.25 412.49,462.51 412.49,445.44 424.95,436.18" fill="#6f8eac" stroke="#d8e0eb" stroke-width="0.65" stroke-linejoin="round"/><polygon points="406.08,467.27 393.62,476.53 393.62,459.46 406.08,450.21" fill="#7799bd" stroke="#d8e0eb" stroke-width="0.65" stroke-linejoin="round"/><polygon points="387.21,481.30 374.76,490.55 374.76,473.48 387.21,464.23" fill="#8eadd0" stroke="#d8e0eb" stroke-width="0.65" stroke-linejoin="round"/><polygon points="368.34,495.32 355.89,504.58 355.89,487.51 368.34,478.25" fill="#6f8eac" stroke="#d8e0eb" stroke-width="0.65" stroke-linejoin="round"/><polygon points="349.47,509.34 337.02,518.60 337.02,501.53 349.47,492.27" fill="#7799bd" stroke="#d8e0eb" stroke-width="0.65" stroke-linejoin="round"/><polygon points="330.60,523.37 318.15,532.62 318.15,515.55 330.60,506.30" fill="#8eadd0" stroke="#d8e0eb" stroke-width="0.65" stroke-linejoin="round"/><polygon points="297.79,365.43 359.21,319.78 328.50,313.18" fill="#b77978" stroke="#929bad" stroke-width="0.65" stroke-linejoin="round"/><polygon points="212.75,491.73 213.12,491.46 378.99,591.40 378.62,591.67" fill="#d5d9e5" stroke="#929bad" stroke-width="0.65" stroke-linejoin="round"/><polygon points="221.30,457.12 447.74,288.85 541.37,345.27 314.94,513.54" fill="#f5f5fa" stroke="#929bad" stroke-width="0.65" stroke-linejoin="round"/><polygon points="407.14,531.60 304.14,469.55 304.14,365.21 407.14,427.27" fill="#b86e72" stroke="#929bad" stroke-width="0.65" stroke-linejoin="round"/><polygon points="401.31,523.65 378.65,510.00 378.65,492.78 401.31,506.44" fill="#7799bd" stroke="#d8e0eb" stroke-width="0.65" stroke-linejoin="round"/><polygon points="366.97,502.97 344.31,489.31 344.31,472.10 366.97,485.75" fill="#8eadd0" stroke="#d8e0eb" stroke-width="0.65" stroke-linejoin="round"/><polygon points="332.64,482.28 309.98,468.63 309.98,451.41 332.64,465.07" fill="#6f8eac" stroke="#d8e0eb" stroke-width="0.65" stroke-linejoin="round"/><polygon points="401.31,497.57 378.65,483.92 378.65,466.70 401.31,480.35" fill="#8eadd0" stroke="#d8e0eb" stroke-width="0.65" stroke-linejoin="round"/><polygon points="366.97,476.88 344.31,463.23 344.31,446.01 366.97,459.67" fill="#6f8eac" stroke="#d8e0eb" stroke-width="0.65" stroke-linejoin="round"/><polygon points="332.64,456.20 309.98,442.55 309.98,425.33 332.64,438.98" fill="#7799bd" stroke="#d8e0eb" stroke-width="0.65" stroke-linejoin="round"/><polygon points="401.31,471.48 378.65,457.83 378.65,440.62 401.31,454.27" fill="#6f8eac" stroke="#d8e0eb" stroke-width="0.65" stroke-linejoin="round"/><polygon points="366.97,450.80 344.31,437.15 344.31,419.93 366.97,433.58" fill="#7799bd" stroke="#d8e0eb" stroke-width="0.65" stroke-linejoin="round"/><polygon points="332.64,430.11 309.98,416.46 309.98,399.25 332.64,412.90" fill="#8eadd0" stroke="#d8e0eb" stroke-width="0.65" stroke-linejoin="round"/><polygon points="401.31,445.40 378.65,431.75 378.65,414.53 401.31,428.18" fill="#7799bd" stroke="#d8e0eb" stroke-width="0.65" stroke-linejoin="round"/><polygon points="366.97,424.71 344.31,411.06 344.31,393.85 366.97,407.50" fill="#8eadd0" stroke="#d8e0eb" stroke-width="0.65" stroke-linejoin="round"/><polygon points="332.64,404.03 309.98,390.38 309.98,373.16 332.64,386.81" fill="#6f8eac" stroke="#d8e0eb" stroke-width="0.65" stroke-linejoin="round"/><polygon points="213.68,454.05 447.34,280.40 549.00,341.65 315.34,515.30" fill="#c9cbd9" stroke="#929bad" stroke-width="0.65" stroke-linejoin="round"/><polygon points="470.44,387.74 474.66,384.60 480.01,387.83 475.79,390.96" fill="#f5f5fa" stroke="#929bad" stroke-width="0.65" stroke-linejoin="round"/><polygon points="462.55,490.43 407.14,531.60 407.14,427.27 462.55,386.09" fill="#b86e72" stroke="#929bad" stroke-width="0.65" stroke-linejoin="round"/><polygon points="459.41,488.33 447.22,497.39 447.22,480.17 459.41,471.11" fill="#7799bd" stroke="#d8e0eb" stroke-width="0.65" stroke-linejoin="round"/><polygon points="440.94,502.05 428.75,511.11 428.75,493.90 440.94,484.84" fill="#8eadd0" stroke="#d8e0eb" stroke-width="0.65" stroke-linejoin="round"/><polygon points="422.47,515.78 410.28,524.84 410.28,507.62 422.47,498.56" fill="#6f8eac" stroke="#d8e0eb" stroke-width="0.65" stroke-linejoin="round"/><polygon points="459.41,462.24 447.22,471.30 447.22,454.09 459.41,445.03" fill="#8eadd0" stroke="#d8e0eb" stroke-width="0.65" stroke-linejoin="round"/><polygon points="440.94,475.97 428.75,485.03 428.75,467.81 440.94,458.75" fill="#6f8eac" stroke="#d8e0eb" stroke-width="0.65" stroke-linejoin="round"/><polygon points="422.47,489.69 410.28,498.75 410.28,481.54 422.47,472.48" fill="#7799bd" stroke="#d8e0eb" stroke-width="0.65" stroke-linejoin="round"/><polygon points="459.41,436.16 447.22,445.22 447.22,428.00 459.41,418.94" fill="#6f8eac" stroke="#d8e0eb" stroke-width="0.65" stroke-linejoin="round"/><polygon points="440.94,449.88 428.75,458.94 428.75,441.73 440.94,432.67" fill="#7799bd" stroke="#d8e0eb" stroke-width="0.65" stroke-linejoin="round"/><polygon points="422.47,463.61 410.28,472.67 410.28,455.45 422.47,446.39" fill="#8eadd0" stroke="#d8e0eb" stroke-width="0.65" stroke-linejoin="round"/><polygon points="459.41,410.08 447.22,419.13 447.22,401.92 459.41,392.86" fill="#7799bd" stroke="#d8e0eb" stroke-width="0.65" stroke-linejoin="round"/><polygon points="440.94,423.80 428.75,432.86 428.75,415.64 440.94,406.58" fill="#8eadd0" stroke="#d8e0eb" stroke-width="0.65" stroke-linejoin="round"/><polygon points="422.47,437.52 410.28,446.58 410.28,429.37 422.47,420.31" fill="#6f8eac" stroke="#d8e0eb" stroke-width="0.65" stroke-linejoin="round"/><polygon points="188.67,509.63 189.03,509.36 354.90,609.30 354.54,609.57" fill="#d5d9e5" stroke="#929bad" stroke-width="0.65" stroke-linejoin="round"/><polygon points="304.14,365.21 359.55,324.04 462.55,386.09 407.14,427.27" fill="#f5f5fa" stroke="#929bad" stroke-width="0.65" stroke-linejoin="round"/><polygon points="328.50,313.18 359.21,319.78 468.90,385.87 438.19,379.27" fill="#ececf5" stroke="#929bad" stroke-width="0.65" stroke-linejoin="round"/><polygon points="330.71,647.19 159.49,544.03 159.49,527.98 330.71,631.14" fill="#c8c7dc" stroke="#929bad" stroke-width="0.65" stroke-linejoin="round"/><polygon points="549.00,345.00 315.34,518.64 315.34,515.30 549.00,341.65" fill="#e1e6ef" stroke="#929bad" stroke-width="0.65" stroke-linejoin="round"/><polygon points="164.58,527.53 164.94,527.27 330.81,627.20 330.45,627.47" fill="#d5d9e5" stroke="#929bad" stroke-width="0.65" stroke-linejoin="round"/><polygon points="389.08,545.03 383.72,541.81 383.72,452.18 389.08,455.41" fill="#b96f76" stroke="#929bad" stroke-width="0.65" stroke-linejoin="round"/><polygon points="393.29,541.90 389.08,545.03 389.08,455.41 393.29,452.27" fill="#b96f76" stroke="#929bad" stroke-width="0.65" stroke-linejoin="round"/><polygon points="297.79,365.43 328.50,313.18 438.19,379.27 407.48,431.52" fill="#dee2ec" stroke="#929bad" stroke-width="0.65" stroke-linejoin="round"/><polygon points="314.94,591.12 221.30,534.71 221.30,457.12 314.94,513.54" fill="#c58b88" stroke="#929bad" stroke-width="0.65" stroke-linejoin="round"/><polygon points="313.61,585.93 308.46,582.83 308.46,565.76 313.61,568.86" fill="#7799bd" stroke="#d8e0eb" stroke-width="0.65" stroke-linejoin="round"/><polygon points="305.81,581.23 300.66,578.12 300.66,561.06 305.81,564.16" fill="#8eadd0" stroke="#d8e0eb" stroke-width="0.65" stroke-linejoin="round"/><polygon points="298.01,576.53 292.86,573.42 292.86,556.35 298.01,559.46" fill="#6f8eac" stroke="#d8e0eb" stroke-width="0.65" stroke-linejoin="round"/><polygon points="290.20,571.82 285.05,568.72 285.05,551.65 290.20,554.76" fill="#7799bd" stroke="#d8e0eb" stroke-width="0.65" stroke-linejoin="round"/><polygon points="282.40,567.12 277.25,564.02 277.25,546.95 282.40,550.05" fill="#8eadd0" stroke="#d8e0eb" stroke-width="0.65" stroke-linejoin="round"/><polygon points="274.60,562.42 269.45,559.32 269.45,542.25 274.60,545.35" fill="#6f8eac" stroke="#d8e0eb" stroke-width="0.65" stroke-linejoin="round"/><polygon points="266.79,557.72 261.64,554.62 261.64,537.55 266.79,540.65" fill="#7799bd" stroke="#d8e0eb" stroke-width="0.65" stroke-linejoin="round"/><polygon points="258.99,553.02 253.84,549.92 253.84,532.85 258.99,535.95" fill="#8eadd0" stroke="#d8e0eb" stroke-width="0.65" stroke-linejoin="round"/><polygon points="251.19,548.32 246.04,545.22 246.04,528.15 251.19,531.25" fill="#6f8eac" stroke="#d8e0eb" stroke-width="0.65" stroke-linejoin="round"/><polygon points="243.39,543.62 238.24,540.51 238.24,523.45 243.39,526.55" fill="#7799bd" stroke="#d8e0eb" stroke-width="0.65" stroke-linejoin="round"/><polygon points="235.58,538.92 230.43,535.81 230.43,518.74 235.58,521.85" fill="#8eadd0" stroke="#d8e0eb" stroke-width="0.65" stroke-linejoin="round"/><polygon points="227.78,534.21 222.63,531.11 222.63,514.04 227.78,517.15" fill="#6f8eac" stroke="#d8e0eb" stroke-width="0.65" stroke-linejoin="round"/><polygon points="313.61,560.07 308.46,556.96 308.46,539.90 313.61,543.00" fill="#8eadd0" stroke="#d8e0eb" stroke-width="0.65" stroke-linejoin="round"/><polygon points="305.81,555.37 300.66,552.26 300.66,535.19 305.81,538.30" fill="#6f8eac" stroke="#d8e0eb" stroke-width="0.65" stroke-linejoin="round"/><polygon points="298.01,550.66 292.86,547.56 292.86,530.49 298.01,533.60" fill="#7799bd" stroke="#d8e0eb" stroke-width="0.65" stroke-linejoin="round"/><polygon points="290.20,545.96 285.05,542.86 285.05,525.79 290.20,528.89" fill="#8eadd0" stroke="#d8e0eb" stroke-width="0.65" stroke-linejoin="round"/><polygon points="282.40,541.26 277.25,538.16 277.25,521.09 282.40,524.19" fill="#6f8eac" stroke="#d8e0eb" stroke-width="0.65" stroke-linejoin="round"/><polygon points="274.60,536.56 269.45,533.46 269.45,516.39 274.60,519.49" fill="#7799bd" stroke="#d8e0eb" stroke-width="0.65" stroke-linejoin="round"/><polygon points="266.79,531.86 261.64,528.76 261.64,511.69 266.79,514.79" fill="#8eadd0" stroke="#d8e0eb" stroke-width="0.65" stroke-linejoin="round"/><polygon points="258.99,527.16 253.84,524.06 253.84,506.99 258.99,510.09" fill="#6f8eac" stroke="#d8e0eb" stroke-width="0.65" stroke-linejoin="round"/><polygon points="251.19,522.46 246.04,519.35 246.04,502.29 251.19,505.39" fill="#7799bd" stroke="#d8e0eb" stroke-width="0.65" stroke-linejoin="round"/><polygon points="243.39,517.76 238.24,514.65 238.24,497.58 243.39,500.69" fill="#8eadd0" stroke="#d8e0eb" stroke-width="0.65" stroke-linejoin="round"/><polygon points="235.58,513.05 230.43,509.95 230.43,492.88 235.58,495.99" fill="#6f8eac" stroke="#d8e0eb" stroke-width="0.65" stroke-linejoin="round"/><polygon points="227.78,508.35 222.63,505.25 222.63,488.18 227.78,491.28" fill="#7799bd" stroke="#d8e0eb" stroke-width="0.65" stroke-linejoin="round"/><polygon points="313.61,534.21 308.46,531.10 308.46,514.03 313.61,517.14" fill="#6f8eac" stroke="#d8e0eb" stroke-width="0.65" stroke-linejoin="round"/><polygon points="305.81,529.50 300.66,526.40 300.66,509.33 305.81,512.44" fill="#7799bd" stroke="#d8e0eb" stroke-width="0.65" stroke-linejoin="round"/><polygon points="298.01,524.80 292.86,521.70 292.86,504.63 298.01,507.73" fill="#8eadd0" stroke="#d8e0eb" stroke-width="0.65" stroke-linejoin="round"/><polygon points="290.20,520.10 285.05,517.00 285.05,499.93 290.20,503.03" fill="#6f8eac" stroke="#d8e0eb" stroke-width="0.65" stroke-linejoin="round"/><polygon points="282.40,515.40 277.25,512.30 277.25,495.23 282.40,498.33" fill="#7799bd" stroke="#d8e0eb" stroke-width="0.65" stroke-linejoin="round"/><polygon points="274.60,510.70 269.45,507.60 269.45,490.53 274.60,493.63" fill="#8eadd0" stroke="#d8e0eb" stroke-width="0.65" stroke-linejoin="round"/><polygon points="266.79,506.00 261.64,502.90 261.64,485.83 266.79,488.93" fill="#6f8eac" stroke="#d8e0eb" stroke-width="0.65" stroke-linejoin="round"/><polygon points="258.99,501.30 253.84,498.19 253.84,481.13 258.99,484.23" fill="#7799bd" stroke="#d8e0eb" stroke-width="0.65" stroke-linejoin="round"/><polygon points="251.19,496.60 246.04,493.49 246.04,476.42 251.19,479.53" fill="#8eadd0" stroke="#d8e0eb" stroke-width="0.65" stroke-linejoin="round"/><polygon points="243.39,491.89 238.24,488.79 238.24,471.72 243.39,474.83" fill="#6f8eac" stroke="#d8e0eb" stroke-width="0.65" stroke-linejoin="round"/><polygon points="235.58,487.19 230.43,484.09 230.43,467.02 235.58,470.12" fill="#7799bd" stroke="#d8e0eb" stroke-width="0.65" stroke-linejoin="round"/><polygon points="227.78,482.49 222.63,479.39 222.63,462.32 227.78,465.42" fill="#8eadd0" stroke="#d8e0eb" stroke-width="0.65" stroke-linejoin="round"/><polygon points="445.24,395.48 445.05,393.46 444.48,391.80 443.56,390.56 442.31,389.80 440.80,389.55 439.07,389.81 437.20,390.57 435.25,391.81 433.30,393.47 431.42,395.49 429.69,397.80 428.18,400.31 426.93,402.92 426.01,405.52 425.44,408.03 425.25,410.34 425.44,412.36 426.01,414.02 426.93,415.25 428.18,416.01 429.69,416.27 431.42,416.01 433.30,415.25 435.25,414.01 437.20,412.35 439.07,410.32 440.80,408.01 442.31,405.51 443.56,402.90 444.48,400.29 445.05,397.79" fill="#e9edf7" stroke="#929bad" stroke-width="0.65" stroke-linejoin="round"/><polygon points="360.17,566.51 354.82,563.29 354.82,473.66 360.17,476.89" fill="#b96f76" stroke="#929bad" stroke-width="0.65" stroke-linejoin="round"/><polygon points="364.38,563.38 360.17,566.51 360.17,476.89 364.38,473.76" fill="#b96f76" stroke="#929bad" stroke-width="0.65" stroke-linejoin="round"/><polygon points="407.48,431.52 438.19,379.27 468.90,385.87" fill="#b77978" stroke="#929bad" stroke-width="0.65" stroke-linejoin="round"/><polygon points="383.72,452.18 387.94,449.05 393.29,452.27 389.08,455.41" fill="#f5f5fa" stroke="#929bad" stroke-width="0.65" stroke-linejoin="round"/><polygon points="333.56,607.53 329.22,610.75 329.22,582.66 333.56,579.44" fill="#969392" stroke="#929bad" stroke-width="0.65" stroke-linejoin="round"/><polygon points="329.22,610.75 324.41,607.85 324.41,579.76 329.22,582.66" fill="#969392" stroke="#929bad" stroke-width="0.65" stroke-linejoin="round"/><polygon points="331.26,587.99 325.91,584.77 325.91,495.15 331.26,498.37" fill="#b96f76" stroke="#929bad" stroke-width="0.65" stroke-linejoin="round"/><polygon points="335.48,584.86 331.26,587.99 331.26,498.37 335.48,495.24" fill="#b96f76" stroke="#929bad" stroke-width="0.65" stroke-linejoin="round"/><polygon points="315.34,518.64 213.68,457.39 213.68,454.05 315.34,515.30" fill="#e1e6ef" stroke="#929bad" stroke-width="0.65" stroke-linejoin="round"/><polygon points="324.41,579.76 328.74,576.54 333.56,579.44 329.22,582.66" fill="#aaa0a1" stroke="#929bad" stroke-width="0.65" stroke-linejoin="round"/><polygon points="354.82,473.66 359.03,470.53 364.38,473.76 360.17,476.89" fill="#f5f5fa" stroke="#929bad" stroke-width="0.65" stroke-linejoin="round"/><circle cx="319.98" cy="570.23" r="12" fill="#f3d7e7" stroke="#a6a4b4" stroke-width=".7"/><circle cx="337.98" cy="568.23" r="11" fill="#e4bed5" stroke="#a6a4b4" stroke-width=".7"/><circle cx="328.98" cy="558.23" r="13" fill="#f7e4ee" stroke="#a6a4b4" stroke-width=".7"/><circle cx="328.98" cy="575.23" r="10" fill="#f3d7e7" stroke="#a6a4b4" stroke-width=".7"/><polygon points="325.91,495.15 330.13,492.01 335.48,495.24 331.26,498.37" fill="#f5f5fa" stroke="#929bad" stroke-width="0.65" stroke-linejoin="round"/></svg>